<svg xmlns="http://www.w3.org/2000/svg" width="442" height="416" fill="none" viewBox="0 0 442 416"><path fill="#DDEBFE" stroke="#000" d="M420.695 284.325C420.695 314.644 398.317 342.202 361.898 362.208C325.496 382.204 275.174 394.588 219.563 394.588C163.951 394.588 113.629 382.204 77.2277 362.208C40.8082 342.202 18.4302 314.644 18.4302 284.325C18.4302 254.006 40.8082 226.449 77.2277 206.443C113.629 186.446 163.951 174.063 219.563 174.063C275.174 174.063 325.496 186.446 361.898 206.443C398.317 226.449 420.695 254.006 420.695 284.325Z"/><path fill="#E0E0E0" d="M137.804 358.961C176.276 358.961 207.463 342.014 207.463 321.109C207.463 300.204 176.276 283.257 137.804 283.257C99.3324 283.257 68.1449 300.204 68.1449 321.109C68.1449 342.014 99.3324 358.961 137.804 358.961Z"/><path fill="#E0E0E0" d="M306.574 357.01C345.046 357.01 376.233 340.063 376.233 319.158C376.233 298.253 345.046 281.306 306.574 281.306C268.102 281.306 236.915 298.253 236.915 319.158C236.915 340.063 268.102 357.01 306.574 357.01Z"/><path fill="#CEE3FF" d="M63.656 273.871L72.1354 269.312C72.1354 269.312 76.2018 248.218 73.1608 230.085C68.8849 204.592 50.442 195.799 43.7439 198.333C37.0459 200.867 35.4715 208.419 47.5681 223.149C54.7046 231.84 63.885 250.212 63.656 273.871Z"/><g opacity=".15"><path fill="#000" d="M63.656 273.871L72.1354 269.312C72.1354 269.312 76.2018 248.218 73.1608 230.085C68.8849 204.592 50.442 195.799 43.7439 198.333C37.0459 200.867 35.4715 208.419 47.5681 223.149C54.7046 231.84 63.885 250.212 63.656 273.871Z"/></g><path fill="#fff" d="M66.7297 263.746C66.7014 263.746 66.674 263.744 66.6457 263.741C66.3151 263.697 66.0835 263.41 66.1295 263.099C69.6337 239.232 59.4358 213.083 47.9783 202.545C47.7396 202.326 47.7352 201.965 47.9686 201.74C48.202 201.518 48.5847 201.511 48.8234 201.731C60.4904 212.461 70.8836 239.036 67.3273 263.254C67.2858 263.539 67.0259 263.746 66.7297 263.746Z"/><path fill="#CEE3FF" d="M40.1301 286.662C38.7908 287.386 36.0292 285.803 34.9711 285.136C33.1606 283.992 31.6932 282.373 30.719 280.541C29.5849 278.41 29.2993 276.126 29.6547 273.768C29.8386 272.545 30.2028 271.353 30.5652 270.166C30.9215 269.001 31.2768 267.836 31.6331 266.67C31.984 265.52 32.3394 264.331 32.1776 263.144C31.8523 260.754 29.5972 259.078 27.5481 257.634C25.2816 256.036 22.9204 253.927 22.9336 251.049C22.9434 248.828 24.1659 246.765 25.6281 245.022C27.0902 243.278 28.8255 241.738 30.1471 239.899C31.0983 238.574 31.8408 237.018 31.6861 235.426C31.5898 234.437 31.154 233.505 30.651 232.632C29.5707 230.758 28.1466 229.041 27.4014 227.028C26.6562 225.014 26.7623 222.51 28.4321 221.07C29.8023 219.888 31.8391 219.722 33.6946 219.838C35.4104 219.944 37.0874 220.673 38.5893 221.459C43.4442 224 46.2156 229.412 51.3675 231.368C53.3547 232.122 55.532 232.287 57.6032 232.802C59.6745 233.317 61.7872 234.313 62.7464 236.116C64.6381 239.671 61.1278 244.053 62.4573 247.827C63.6339 251.167 67.0815 252.445 69.0183 255.455C69.8652 256.771 70.0606 258.293 69.9235 259.827C69.6919 262.423 69.288 264.328 67.9646 267.215C66.8711 269.6 63.656 273.871 63.656 273.871C63.5756 273.946 40.3352 286.552 40.1301 286.662Z"/><path fill="#fff" d="M53.8948 279.76C53.886 279.76 53.878 279.76 53.878 279.76C53.5359 279.747 53.2769 279.481 53.2902 279.168C54.2891 256.577 42.9801 231.638 34.7562 224.392C34.5131 224.177 34.4999 223.817 34.728 223.587C34.9569 223.359 35.3379 223.347 35.5828 223.561C43.9719 230.952 55.5117 256.306 54.4995 279.214C54.4845 279.521 54.2166 279.76 53.8948 279.76Z"/><path fill="#fff" d="M50.2978 253.071C50.2386 253.071 50.1785 253.064 50.1193 253.045C42.4081 250.801 32.7964 250.406 32.7009 250.403C32.3668 250.39 32.1087 250.124 32.121 249.81C32.1352 249.498 32.388 249.25 32.7504 249.265C32.8486 249.27 42.6123 249.671 50.4755 251.959C50.7946 252.051 50.9741 252.37 50.8742 252.67C50.7955 252.915 50.5569 253.071 50.2978 253.071Z"/><path fill="#CEE3FF" d="M387.931 279.996L375.691 273.9C375.691 273.9 374.761 256.288 376.219 242.331C378.266 222.718 393.762 199.945 409.817 205.487C425.872 211.029 402.456 231.003 397.244 247.639C392.031 264.275 387.931 279.996 387.931 279.996Z"/><path fill="#000" d="M387.931 279.996L375.691 273.9C375.691 273.9 374.761 256.288 376.219 242.331C378.266 222.718 393.762 199.945 409.817 205.487C425.872 211.029 402.456 231.003 397.244 247.639C392.031 264.275 387.931 279.996 387.931 279.996Z" opacity=".3"/><path fill="#fff" d="M381.947 277.95C381.953 277.95 381.96 277.95 381.966 277.95C382.265 277.94 382.499 277.705 382.488 277.424C380.917 233.844 403.968 211.923 404.2 211.707C404.413 211.509 404.416 211.187 404.206 210.987C403.994 210.786 403.651 210.784 403.441 210.981C403.204 211.201 379.82 233.438 381.406 277.459C381.416 277.734 381.656 277.95 381.947 277.95Z"/><path fill="#CEE3FF" d="M394.214 283.473L387.851 280.015C387.851 280.015 385.849 266.143 391.801 250.941C397.698 235.88 412.933 227.669 419.945 229.914C428.506 232.654 428.557 240.366 425.442 245.438C421.77 251.415 398.836 266.539 394.214 283.473Z"/><path fill="#000" d="M394.214 283.473L387.851 280.015C387.851 280.015 385.849 266.143 391.801 250.941C397.698 235.88 412.933 227.669 419.945 229.914C428.506 232.654 428.557 240.366 425.442 245.438C421.77 251.415 398.836 266.539 394.214 283.473Z" opacity=".1"/><path fill="#fff" d="M390.857 282.159H390.86C391.158 282.158 391.401 281.929 391.399 281.648C391.272 254.094 418.762 235.471 419.04 235.285C419.283 235.123 419.341 234.805 419.168 234.576C418.997 234.347 418.661 234.29 418.414 234.455C418.132 234.643 390.187 253.574 390.316 281.654C390.317 281.932 390.559 282.159 390.857 282.159Z"/><path fill="#FFA8A7" d="M250.397 114.365C250.812 113.724 250.957 112.875 250.55 112.225C250.137 111.565 249.251 111.267 248.432 111.294C247.615 111.322 246.838 111.617 246.077 111.896C241.534 113.562 236.81 114.807 232.001 115.604C230.94 115.78 229.706 115.877 228.83 115.38C228.5 115.194 228.279 114.859 228.235 114.5C228.108 113.472 228.712 112.301 229.11 111.254C229.699 109.706 229.767 107.992 229.333 106.396C229.074 105.447 227.981 103.639 226.8 105.143C226.257 105.834 224.883 107.914 221.076 111.35C217.257 114.789 217.656 117.36 213.932 120.685C213.155 121.381 208.856 122.831 203.614 125.716L208.953 139.907C213.501 136.924 216.964 134.998 220.1 133.489C222.04 132.598 226.184 132.28 228.138 131.865C230.259 131.414 232.372 130.928 234.499 130.505C237.697 129.869 240.741 128.912 243.731 127.64C245.137 127.041 246.556 126.323 247.448 125.148C248.104 124.282 248.411 123.247 248.645 122.222C248.853 121.315 249.382 120.546 249.609 119.634C249.927 118.355 249.711 116.879 248.709 115.951C249.339 115.487 249.983 115.007 250.397 114.365Z"/><path fill="#455A64" d="M154.14 90.173C158.817 90.2063 163.547 90.594 167.288 92.5009C171.029 94.4079 172.093 95.3264 178.388 107.629C184.683 119.932 190.04 130.537 190.04 130.537L209.352 122.505C209.867 126.761 214.193 134.377 216.649 135.963C216.649 135.963 206.205 142.351 198.546 146.829C192.817 150.179 188.071 152.866 185.017 152.313C181.963 151.759 179.637 150.577 173.727 142.096C167.163 132.675 163.132 125.912 158.867 118.254C158.868 118.252 152.315 101.878 154.14 90.173Z"/><path fill="#37474F" d="M190.04 130.536C186.796 132.181 183.352 134.363 181.532 138.565C181.532 138.565 181.406 132.691 188.898 128.278L190.04 130.536Z"/><path fill="#CEE3FF" d="M146.591 63.6397L120.481 61.8268C115.436 65.4235 106.047 72.9955 106.056 75.093L106.057 76.549C106.064 76.6156 106.079 76.6771 106.108 76.7295C107.034 78.3861 110.36 79.4019 115.55 79.4851C121.7 79.5833 131.247 79.055 133.756 77.0266C137.537 73.9715 146.59 65.0225 146.59 65.0225L145.274 64.9309C146.087 64.1372 146.591 63.6397 146.591 63.6397Z"/><path fill="#000" d="M146.591 63.6397L120.481 61.8268C115.436 65.4235 106.047 72.9955 106.056 75.093L106.057 76.549C106.064 76.6156 106.079 76.6771 106.108 76.7295C107.034 78.3861 110.36 79.4019 115.55 79.4851C121.7 79.5833 131.247 79.055 133.756 77.0266C137.537 73.9715 146.59 65.0225 146.59 65.0225L145.274 64.9309C146.087 64.1372 146.591 63.6397 146.591 63.6397Z" opacity=".2"/><path fill="#CEE3FF" d="M120.48 63.2104C115.208 66.9693 105.184 75.0747 106.109 76.7304C107.035 78.3869 110.361 79.4027 115.55 79.4859C121.701 79.5841 131.247 79.0558 133.757 77.0274C137.538 73.9723 146.591 65.0233 146.591 65.0233L120.48 63.2104Z"/><path fill="#000" d="M120.48 63.2104C115.208 66.9693 105.184 75.0747 106.109 76.7304C107.035 78.3869 110.361 79.4027 115.55 79.4859C121.701 79.5841 131.247 79.0558 133.757 77.0274C137.538 73.9723 146.591 65.0233 146.591 65.0233L120.48 63.2104Z" opacity=".4"/><path fill="#CEE3FF" d="M120.48 63.2104C120.397 63.9234 123.062 65.4077 123.062 65.4077L122.317 61.0929L120.48 63.2104Z"/><path fill="#000" d="M120.48 63.2104C120.397 63.9234 123.062 65.4077 123.062 65.4077L122.317 61.0929L120.48 63.2104Z" opacity=".3"/><path fill="#263238" d="M116.202 335.231C115.845 336.565 115.091 340.341 107.631 340.341C100.171 340.341 95.891 337.463 94.4235 333.896C92.9561 330.327 93.7986 327.683 93.9347 324.572C94.0708 321.461 91.6133 319.478 91.0696 317.797C90.2687 315.32 92.4672 311.912 92.4672 311.912L116.202 335.231Z"/><path fill="#263238" d="M186.144 315.856C186.419 316.047 186.583 318.234 185.796 319.236C185.254 319.926 180.252 323.344 174.079 322.632C167.906 321.921 164.893 320.41 161.366 318.452C157.757 316.449 155.266 316.159 151.593 316.171C148.036 316.182 145.407 315.529 145.103 314.661C144.569 313.137 144.531 312.161 145.311 312.182L186.144 315.856Z"/><path fill="#FFA8A7" d="M94.9513 306.799C94.9513 313.199 107.971 314.368 107.65 309.214L112.188 294.257L97.4716 292.787L94.9513 306.799Z"/><path fill="#CEE3FF" d="M116.129 332.029C115.647 330.813 113.997 328.939 113.315 327.81C109.751 321.917 107.922 315.36 108.371 308.546C108.396 308.172 108.451 307.448 108.093 307.176C107.714 306.889 107.289 307.163 106.845 307.28C106.838 307.273 106.833 307.266 106.826 307.259C106.826 307.259 106.82 307.278 106.817 307.288C106.261 307.433 105.503 307.578 104.468 307.553C101.835 307.49 99.0504 306.533 98.3909 306.533C97.8782 306.533 97.5087 307.981 97.3169 309.574C96.4744 308.905 96.3321 307.778 95.5957 307.035C95.1988 306.634 95.0025 306.599 95.0945 306.035C95.1546 305.668 95.228 305.34 95.2854 304.972C94.6472 304.702 93.7375 307.033 92.9216 308.795C91.9784 310.835 90.838 313.13 91.4117 315.401C91.7317 316.666 92.3965 317.823 92.9897 318.997C94.0134 321.019 94.854 323.2 94.7577 325.438C94.7152 326.419 94.4925 327.39 94.4987 328.37C94.519 331.789 96.577 334.743 99.8645 336.197C104.138 338.087 110.872 338.75 115.236 336.32C116.765 335.47 116.613 333.244 116.129 332.029Z"/><path fill="#000" d="M116.129 332.029C115.647 330.813 113.997 328.939 113.315 327.81C109.751 321.917 107.922 315.36 108.371 308.546C108.396 308.172 108.451 307.448 108.093 307.176C107.714 306.889 107.289 307.163 106.845 307.28C106.838 307.273 106.833 307.266 106.826 307.259C106.826 307.259 106.82 307.278 106.817 307.288C106.261 307.433 105.503 307.578 104.468 307.553C101.835 307.49 99.0504 306.533 98.3909 306.533C97.8782 306.533 97.5087 307.981 97.3169 309.574C96.4744 308.905 96.3321 307.778 95.5957 307.035C95.1988 306.634 95.0025 306.599 95.0945 306.035C95.1546 305.668 95.228 305.34 95.2854 304.972C94.6472 304.702 93.7375 307.033 92.9216 308.795C91.9784 310.835 90.838 313.13 91.4117 315.401C91.7317 316.666 92.3965 317.823 92.9897 318.997C94.0134 321.019 94.854 323.2 94.7577 325.438C94.7152 326.419 94.4925 327.39 94.4987 328.37C94.519 331.789 96.577 334.743 99.8645 336.197C104.138 338.087 110.872 338.75 115.236 336.32C116.765 335.47 116.613 333.244 116.129 332.029Z" opacity=".4"/><path fill="#FFA8A7" d="M147.91 301.583C151.591 304.073 154.992 304.381 159.319 302.336L161.498 280.513H145.573L147.91 301.583Z"/><path fill="#263238" d="M113.041 161.686C110.1 187.081 106.197 237.512 106.197 237.512C106.197 237.512 101.778 245.151 100.054 257.402C97.9242 272.529 95.4233 301.307 95.4233 301.307C95.4233 301.307 102.943 305.906 110.253 303.682C110.253 303.682 126.981 258.253 130.318 243.36C133.23 230.363 138.387 203.668 138.387 203.668L144.835 239.995C144.835 239.995 142.303 247.537 142.754 257.7C143.064 264.697 145.992 291.445 145.992 291.445C148.412 293.599 157.718 293.889 160.823 292.027C160.823 292.027 165.289 247.493 165.941 240.143C166.798 230.476 168.386 161.112 168.386 161.112L113.041 161.686Z"/><path fill="#000" d="M138.387 203.669L141.987 188.048C141.987 188.048 150.034 186.32 155.782 181.98C155.782 181.98 153.674 186.965 144.861 190.778L141.184 205.412L144.347 237.512L138.387 203.669Z"/><path fill="#CEE3FF" d="M182.983 311.492C176.885 309.346 170.957 306.839 167.201 304.353C166.15 303.657 165.339 303.07 164.666 302.52C163.115 301.054 162.168 297.861 161.497 297.497C161.28 297.378 160.97 297.522 160.526 297.782C160.272 297.527 160.044 297.384 159.813 297.378L159.725 298.26C158.787 298.805 157.456 299.466 155.553 299.693C151.816 300.141 151.667 299.436 151.549 300.58C151.52 300.859 151.525 301.316 151.57 301.857C149.578 301.617 147.994 301.071 147.88 300.368L147.551 298.118C145.572 298.02 145.572 301.347 145.072 305.102C144.668 308.14 143.985 310.356 144.956 312.546C148.037 314.894 153.275 314.113 156.292 314.474C160.558 314.984 162.659 317.867 168.632 319.58C178.259 322.341 184.118 318.56 185.838 316.94C186.938 314.919 186.306 312.661 182.983 311.492Z"/><path fill="#000" d="M182.983 311.492C176.885 309.346 170.957 306.839 167.201 304.353C166.15 303.657 165.339 303.07 164.666 302.52C163.115 301.054 162.168 297.861 161.497 297.497C161.28 297.378 160.97 297.522 160.526 297.782C160.272 297.527 160.044 297.384 159.813 297.378L159.725 298.26C158.787 298.805 157.456 299.466 155.553 299.693C151.816 300.141 151.667 299.436 151.549 300.58C151.52 300.859 151.525 301.316 151.57 301.857C149.578 301.617 147.994 301.071 147.88 300.368L147.551 298.118C145.572 298.02 145.572 301.347 145.072 305.102C144.668 308.14 143.985 310.356 144.956 312.546C148.037 314.894 153.275 314.113 156.292 314.474C160.558 314.984 162.659 317.867 168.632 319.58C178.259 322.341 184.118 318.56 185.838 316.94C186.938 314.919 186.306 312.661 182.983 311.492Z" opacity=".4"/><path fill="#37474F" d="M132.586 89.6755C124.97 90.0241 119.919 90.8286 114.632 91.5084C108.862 92.2497 109.389 96.4587 109.39 105.761C109.391 119.442 114.119 143.134 114.119 143.134L112.096 166.458C118.86 173.265 151.253 176.243 168.528 166.266C168.528 166.266 168.992 119.862 168.528 112.039C167.712 98.2717 158.208 90.3594 152.813 89.9708C152.813 89.9708 145.241 89.0955 132.586 89.6755Z"/><path fill="#263238" d="M127.342 48.8575C127.342 48.8575 123.264 49.3925 121.768 52.2846C120.468 54.8005 120.938 60.875 122.672 67.4943C124.405 74.1137 126.039 78.1023 127.057 79.9336C128.076 81.7656 130.171 82.2806 130.171 82.2806L129.966 74.4257L129.664 68.9528C129.664 68.9528 133.397 64.1555 133.807 60.2235C134.335 55.1633 133.203 53.0924 133.203 53.0924L127.342 48.8575Z"/><path fill="#263238" d="M133.928 56.4578C133.956 64.5582 140.956 71.1035 149.562 71.0777C158.169 71.0511 164.62 64.4068 164.593 56.3064C164.564 48.2061 158.068 41.7173 149.461 41.7439C140.854 41.7689 133.899 48.3575 133.928 56.4578Z"/><path fill="#FFA8A7" d="M129.886 68.0792C128.483 69.2241 127.342 66.2613 126.162 65.1065C124.982 63.9517 121.136 62.3809 119.234 66.1856C117.295 70.0627 120.996 75.3301 123.87 76.5848C128.081 78.4227 129.968 74.4266 129.968 74.4266L130.416 90.9476C134.851 98.4672 141.155 99.8317 145.334 99.4082C149.513 98.9847 150.432 94.8929 147.377 91.5932L147.343 86.2102C147.343 86.2102 152.066 86.87 154.368 86.528C158.197 85.9589 160.198 83.2399 161.348 79.3329C163.193 73.0579 163.934 62.5115 161.371 50.3277C157.081 47.2052 142.206 47.7219 133.205 53.0924C133.864 63.8976 131.288 66.9344 129.886 68.0792Z"/><path fill="#263238" d="M159.761 45.0004C157.994 43.234 155.822 41.823 153.442 40.8986C151.536 40.159 149.408 39.6681 147.35 39.6789C144.633 39.6922 141.93 39.3012 139.211 39.3827C134.494 39.5242 128.801 41.3313 126.67 45.6493C125.696 47.6245 125.528 49.7062 127.454 51.0723C129.098 52.2379 131.206 52.7646 133.206 53.0924C136.699 53.6648 140.163 54.3887 143.681 54.828C147.426 55.2956 151.327 55.5102 155.032 54.6757C156.781 54.2822 158.47 53.6399 159.966 52.6939C160.734 52.208 161.448 51.6464 162.093 51.0224C162.342 50.7811 163.005 50.2861 163.085 49.9566C163.172 49.5939 162.709 48.979 162.53 48.6554C161.792 47.3208 160.854 46.0928 159.761 45.0004Z"/><path fill="#F28F8F" d="M147.342 86.2093C147.342 86.2093 138.784 84.6136 135.789 83.1268C133.784 82.1317 132.13 80.4012 131.642 79.2904C131.642 79.2904 132.21 81.6774 134.006 83.8232C136.201 86.4473 147.349 88.3509 147.349 88.3509L147.342 86.2093Z"/><path fill="#263238" d="M145.796 65.4069C145.799 66.3329 145.034 67.0833 144.088 67.0833C143.142 67.0842 142.372 66.3337 142.368 65.4077C142.366 64.4817 143.129 63.7312 144.076 63.7304C145.023 63.7312 145.793 64.4817 145.796 65.4069Z"/><path fill="#263238" d="M144.088 59.7908L140.268 61.4049C139.815 60.3749 140.304 59.1785 141.36 58.7334C142.414 58.2874 143.636 58.7608 144.088 59.7908Z"/><path fill="#B16668" d="M145.963 76.3992L151.435 78.3128C150.9 79.7888 149.24 80.5567 147.729 80.0284C146.218 79.5001 145.428 77.8752 145.963 76.3992Z"/><path fill="#F28F8F" d="M147.73 80.0284C148.234 80.2048 148.753 80.2248 149.244 80.1341C149.181 78.8054 148.026 77.7429 146.599 77.7429C146.339 77.7429 146.094 77.7887 145.857 77.8544C146.038 78.8212 146.715 79.6732 147.73 80.0284Z"/><path fill="#263238" d="M160.111 60.7468L156.152 59.3699C156.518 58.3182 157.701 57.7749 158.794 58.1552C159.887 58.5354 160.477 59.696 160.111 60.7468Z"/><path fill="#263238" d="M159.9 64.926C159.902 65.8512 159.139 66.6025 158.191 66.6025C157.244 66.6025 156.474 65.8528 156.472 64.9276C156.468 64.0025 157.234 63.2512 158.179 63.2512C159.127 63.2495 159.897 64 159.9 64.926Z"/><path fill="#F28F8F" d="M150.726 63.2104L151.565 73.9058L156.941 72.1627L150.726 63.2104Z"/><path fill="#CEE3FF" d="M119.362 57.2325C119.422 59.359 119.806 61.4049 120.474 63.336C120.915 62.6571 121.472 62.1279 122.071 61.6262C125.29 58.9306 129.412 56.9088 133.812 55.3014L133.831 55.3005C143.693 51.7171 155.209 51.158 164.397 54.209C164.199 52.3686 163.848 50.638 163.17 49.014C159.814 40.7846 153.035 36.4741 142.206 37.5324C129.503 38.7737 119.027 45.4114 119.362 57.2325Z"/><path fill="#263238" d="M142.615 49.9549C145.564 49.0214 153.085 48.4723 155.284 49.1221C155.284 49.1221 156.895 47.9174 157.926 46.3807C158.956 44.844 158.605 42.9079 157.638 42.5144C156.673 42.1208 156.609 43.3123 152.867 45.0561C152.867 45.0561 153.782 42.9312 153.174 41.5018C152.566 40.0724 151.28 42.6383 148.499 44.2907C145.718 45.943 142.969 46.7859 142.615 49.9549Z"/><path fill="#FFA8A7" d="M115.091 92.06C115.091 92.06 103.607 92.06 99.4155 103.57C97.1427 109.811 91.5285 125.747 88.1259 135.604C82.1793 132.896 67.7604 126.334 64.8838 123.951C61.377 121.184 58.9089 118.114 57.5449 116.533C55.8016 114.514 54.7877 112.824 54.0256 111.541C52.209 108.482 51.6415 105.927 51.203 104.729C50.4401 102.638 47.5857 104.842 47.629 108.57C47.66 111.294 48.4229 113.021 48.887 114.535C47.4584 114.41 43.2965 114.01 42.653 113.962C40.4085 113.793 33.5248 113.902 34.2143 117.336C34.369 118.105 34.9215 118.81 34.8464 119.589C34.8101 119.961 34.6325 120.306 34.5105 120.662C34.0526 121.999 34.4512 123.566 35.505 124.565C36.0203 125.053 36.3377 125.477 36.5101 126.159C36.6718 126.799 36.732 127.499 37.158 128.046C37.4984 128.484 38.0279 128.751 38.454 129.115C39.0074 129.586 39.3795 130.214 39.7314 130.834C40.0823 131.455 40.4306 132.09 40.9495 132.596C42.1818 133.796 44.1514 133.482 45.7532 133.467C47.8836 133.447 50.7239 133.398 53.0303 133.61C57.2549 134.534 72.5357 146.921 85.7312 153.674C90.2511 155.987 93.9418 157.134 96.8059 155.71H96.775C99.1919 154.809 100.378 152.323 101.922 148.755C105.425 140.412 114.485 118.152 114.485 118.152C117.949 108.897 117.663 96.5536 115.091 92.06Z"/><path fill="#F28F8F" d="M46.5549 115.69C48.6862 115.66 49.6436 116.695 50.5161 119.321C51.0332 120.879 52.5369 123.583 54.7257 124.167C54.7257 124.167 53.1973 124.5 52.064 123.949C50.9298 123.397 50.6664 123.378 50.3641 123.991C50.0617 124.604 49.3687 125.046 49.3687 125.046C49.3687 125.046 50.7981 125.77 50.4144 127.378C50.0317 128.985 46.1933 130.226 42.4965 129.682C42.4965 129.682 48.1479 129.572 48.7905 127.667C49.4323 125.763 46.0386 124.695 43.8366 124.812C43.8366 124.812 49.1724 124.366 49.3855 122.602C49.5985 120.838 47.1472 120.325 43.9887 120.542C43.9887 120.542 48.3238 119.954 48.5589 118.429C48.8427 116.573 47.2789 116.044 46.5549 115.69Z"/><path fill="#455A64" d="M117.053 91.1747C112.422 91.7854 108.766 92.0142 105.324 94.3671C101.882 96.72 99.975 98.5013 95.4507 111.476C90.9264 124.45 87.5805 134.895 87.5805 134.895L68.0485 125.936C68.1307 130.218 64.0855 138.02 61.8711 139.897C61.8711 139.897 75.1806 148.745 80.8064 152.077C86.4322 155.41 92.7271 158.372 95.6779 157.446C98.6287 156.52 100.2 154.205 104.877 145.068C110.07 134.918 113.124 127.715 116.283 119.596C116.283 119.596 120.494 102.553 117.053 91.1747Z"/><path fill="#37474F" d="M87.5796 134.895C93.9347 138.242 96.3365 142.512 96.3365 142.512C96.3365 142.512 95.4269 136.476 88.4981 132.294L87.5796 134.895Z"/><path fill="#CEE3FF" d="M228.981 28.0701L189.58 49.4625C188.845 49.8618 188.248 50.8344 188.248 51.6332V87.6155C188.248 88.4151 188.847 89.381 189.587 89.7745L192.717 91.4527C193.457 91.8454 194.653 91.8404 195.389 91.4402L234.79 70.0478C235.526 69.6485 236.123 68.6758 236.123 67.8763V31.8948C236.123 31.0952 235.523 30.1293 234.783 29.7358L231.653 28.0576C230.912 27.6649 229.716 27.6707 228.981 28.0701Z"/><path fill="#CEE3FF" d="M194.057 90.7163V54.734C194.057 53.9344 194.654 52.9626 195.39 52.5625L234.79 31.1709C235.526 30.7715 236.123 31.0952 236.123 31.8947V67.8762C236.123 68.6758 235.527 69.6476 234.79 70.0478L195.389 91.4402C194.654 91.8395 194.057 91.5159 194.057 90.7163Z"/><path fill="#000" d="M195.39 91.4401C194.681 91.827 193.386 91.8412 192.716 91.4551L189.589 89.772C188.851 89.3843 188.248 88.4175 188.248 87.6179V51.6331C188.248 51.2163 188.414 50.7587 188.672 50.3535L194.451 53.5009C194.205 53.8887 194.057 54.3346 194.057 54.734V90.713C194.057 91.446 194.605 91.8678 195.39 91.4401Z" opacity=".2"/><path fill="#fff" d="M236.104 31.6676C236 31.0361 235.452 30.8106 234.788 31.1692L195.391 52.5633C195.023 52.7654 194.69 53.1074 194.45 53.5009L188.664 50.3535C188.905 49.9774 189.224 49.6529 189.581 49.4616L228.983 28.0684C229.715 27.669 230.909 27.6632 231.653 28.0567L234.781 29.7332C235.453 30.0926 236.012 30.9205 236.104 31.6676Z" opacity=".5"/><path fill="#CEE3FF" d="M188.247 63.9642L179.192 72.9764C178.62 73.5239 178.818 74.3384 179.395 74.6912C179.616 74.8268 185.172 77.8677 185.172 77.8677L194.057 67.164L188.247 63.9642Z"/><path fill="#000" d="M188.247 63.9642L179.192 72.9764C178.62 73.5239 178.818 74.3384 179.395 74.6912C179.616 74.8268 185.172 77.8677 185.172 77.8677L194.057 67.164L188.247 63.9642Z" opacity=".1"/><path fill="#CEE3FF" d="M194.057 67.164L185.003 76.1763C184.211 76.9334 184.895 78.2038 186.011 78.0516L194.057 77.9809C195.1 77.9809 195.1 67.164 194.057 67.164Z"/><path fill="#455A64" d="M225.781 49.7644L207.591 59.6486L225.619 44.839C226.153 44.4005 226.512 43.5078 226.421 42.8455L226.061 40.4194C225.97 39.7563 225.463 39.5749 224.93 40.0134L204.154 57.081C203.62 57.5195 203.261 58.4122 203.352 59.0745L203.712 61.5006C203.744 61.7369 203.831 61.9091 203.951 62.0165C203.759 62.3617 203.64 62.7586 203.64 63.1263V78.6332C203.64 79.3687 204.115 79.7064 204.701 79.3878L225.781 67.9328C226.367 67.615 226.841 66.7605 226.841 66.0259V50.5191C226.841 49.7844 226.367 49.4466 225.781 49.7644ZM218.75 48.9998L220.134 45.4439C220.291 45.0545 220.635 44.5619 220.902 44.3431L223.65 42.0851C223.917 41.8663 224.006 42.0035 223.848 42.3921L222.465 45.948C222.307 46.3366 221.963 46.83 221.697 47.0488L218.948 49.306C218.681 49.5265 218.593 49.3892 218.75 48.9998ZM212.11 54.4552L213.494 50.8993C213.651 50.5107 213.995 50.0174 214.262 49.7985L217.01 47.5413C217.277 47.3217 217.366 47.4598 217.208 47.8483L215.824 51.4043C215.667 51.7928 215.323 52.2862 215.056 52.505L212.308 54.7631C212.04 54.9819 211.951 54.8446 212.11 54.4552ZM205.468 59.9107L206.852 56.3547C207.009 55.9662 207.353 55.4728 207.62 55.254L210.368 52.9959C210.635 52.7771 210.723 52.9144 210.566 53.3029L209.182 56.8589C209.024 57.2474 208.681 57.7408 208.414 57.9596L205.665 60.2177C205.399 60.4373 205.311 60.2992 205.468 59.9107ZM210.749 60.1528L209.249 62.8634C209.055 63.247 208.677 63.6771 208.405 63.8252L205.597 65.3511C205.325 65.4992 205.26 65.3087 205.454 64.9251L206.954 62.2145C207.148 61.8318 207.525 61.4008 207.798 61.2527L210.606 59.7268C210.878 59.5787 210.943 59.7692 210.749 60.1528ZM217.534 56.4662L216.034 59.1768C215.84 59.5604 215.463 59.9905 215.189 60.1386L212.382 61.6645C212.11 61.8126 212.045 61.6221 212.239 61.2394L213.739 58.5287C213.932 58.1452 214.311 57.715 214.583 57.5669L217.391 56.041C217.663 55.8921 217.727 56.0826 217.534 56.4662ZM224.318 52.7788L222.818 55.4894C222.625 55.8721 222.246 56.3031 221.974 56.4512L219.167 57.9771C218.894 58.1252 218.83 57.9347 219.023 57.5519L220.523 54.8413C220.717 54.4577 221.095 54.0276 221.368 53.8795L224.176 52.3536C224.448 52.2055 224.512 52.396 224.318 52.7788Z"/><path fill="#37474F" d="M289.762 344.459C289.47 344.401 289.272 343.848 289.319 343.224L302.109 149.425L308.477 150.06L290.414 343.435C290.345 344.057 290.054 344.516 289.762 344.459Z"/><path fill="#37474F" d="M349.539 311.118C349.671 311.732 349.547 312.23 349.261 312.232C348.977 312.234 348.615 311.742 348.454 311.135L308.725 153.084L316.066 151.694L349.539 311.118Z"/><path fill="#37474F" d="M267.738 299.14L293.297 146.496L300.024 150.837L268.864 299.187C268.692 299.792 268.313 300.275 268.018 300.265C267.724 300.255 267.598 299.751 267.738 299.14Z"/><path fill="#455A64" d="M244.812 102.434C243.679 101.812 242.112 101.894 240.375 102.833C236.903 104.711 234.082 109.289 234.074 113.058C234.071 114.904 234.744 116.209 235.841 116.842C236.209 117.055 240.642 119.189 240.99 119.381C242.124 120.006 243.692 119.925 245.431 118.984C248.903 117.107 251.724 112.528 251.732 108.759C251.736 106.899 251.052 105.587 249.94 104.961C249.578 104.757 245.163 102.627 244.812 102.434Z"/><path fill="#455A64" d="M234.805 115.854C234.84 115.907 234.874 115.96 234.913 116.009C234.871 115.957 234.833 115.903 234.794 115.848L234.801 115.851C234.801 115.854 234.805 115.854 234.805 115.854Z"/><path fill="#263238" d="M239.158 115.561C239.15 119.33 241.959 120.864 245.431 118.985C248.903 117.107 251.724 112.529 251.732 108.76C251.74 104.991 248.932 103.458 245.459 105.335C241.988 107.214 239.166 111.793 239.158 115.561Z"/><path fill="#000" d="M240.84 119.302C240.819 119.292 240.798 119.279 240.778 119.269C240.76 119.259 240.746 119.252 240.728 119.242C240.696 119.226 240.662 119.209 240.623 119.189C240.598 119.172 240.571 119.159 240.539 119.143C240.48 119.113 240.416 119.081 240.35 119.048C240.22 118.979 240.077 118.903 239.926 118.826C239.428 118.569 236.893 117.398 236.462 117.173C236.329 117.101 236.21 117.037 236.111 116.988C235.988 116.923 235.894 116.869 235.841 116.84C235.701 116.761 235.568 116.669 235.445 116.567C235.386 116.52 235.33 116.468 235.274 116.415C235.179 116.329 235.092 116.234 235.015 116.135C234.976 116.092 234.945 116.052 234.913 116.009C234.874 115.96 234.84 115.907 234.805 115.854C234.805 115.854 234.801 115.854 234.801 115.851L234.794 115.848C234.335 115.149 234.072 114.209 234.075 113.057C234.079 111.803 234.391 110.461 234.937 109.158C235.007 108.99 235.081 108.826 235.158 108.663C235.215 108.541 235.27 108.42 235.333 108.301C235.393 108.178 235.456 108.06 235.519 107.941C235.519 107.938 235.519 107.935 235.522 107.931L240.577 110.495C239.694 112.144 239.161 113.928 239.157 115.561C239.154 116.696 239.406 117.627 239.855 118.325C240.122 118.735 240.451 119.061 240.84 119.302Z" opacity=".15"/><path fill="#37474F" d="M272.836 122.251C272.831 124.811 270.916 127.918 268.557 129.193C267.873 129.563 267.226 129.74 266.653 129.739C266.243 129.738 265.871 129.646 265.548 129.473L265.542 129.469C265.54 129.469 265.54 129.469 265.54 129.469L243.535 117.75L243.472 117.717C243.354 117.649 243.245 117.567 243.142 117.479C242.586 116.998 242.257 116.195 242.26 115.13C242.265 112.571 244.18 109.462 246.539 108.187C247.519 107.657 248.422 107.528 249.141 107.743C249.263 107.777 249.377 107.823 249.489 107.879L249.507 107.888L249.627 107.955L271.588 119.647V119.648C272.361 120.068 272.839 120.968 272.836 122.251Z"/><path fill="#000" d="M263.774 123.646C263.382 124.582 263.157 125.545 263.155 126.446C263.153 127.273 263.342 127.947 263.672 128.45L260.828 126.901L260.765 126.868C260.762 126.868 260.762 126.865 260.76 126.865L245.164 118.625L245.093 118.587L245.073 118.575C245.068 118.573 245.063 118.573 245.058 118.568L245.053 118.565L243.543 117.741C243.538 117.738 243.538 117.736 243.535 117.736L243.517 117.726C242.76 117.3 242.291 116.404 242.294 115.137C242.296 114.289 242.508 113.379 242.875 112.498L263.774 123.646Z" opacity=".15"/><path fill="#37474F" d="M340.439 98.1785C340.439 97.8948 340.239 97.6102 339.841 97.3939L288.536 69.5153C287.739 69.0818 286.445 69.0818 285.648 69.5153L253.311 87.0871C252.912 87.3042 252.713 87.588 252.713 87.8725V99.652C252.713 99.9357 252.912 100.22 253.311 100.437L304.617 128.315C305.414 128.749 306.707 128.749 307.505 128.315L339.841 110.743C340.24 110.526 340.44 110.242 340.44 109.958L340.439 104.528L340.666 104.405C340.522 104.184 340.45 103.918 340.44 103.614V98.1785H340.439Z"/><path fill="#455A64" d="M253.311 88.6562L304.616 116.535C305.413 116.968 306.707 116.968 307.504 116.535L339.841 98.9631C340.638 98.5296 340.638 97.8266 339.841 97.3939L288.536 69.5153C287.739 69.0818 286.445 69.0818 285.647 69.5153L253.31 87.0871C252.514 87.5197 252.514 88.2228 253.311 88.6562Z"/><path fill="#263238" d="M304.618 116.534L253.308 88.6588C252.914 88.4391 252.714 88.1562 252.714 87.8742V99.6528C252.714 99.9357 252.913 100.218 253.308 100.437L304.618 128.313C305.012 128.532 305.539 128.639 306.059 128.639V116.86C305.54 116.86 305.012 116.754 304.618 116.534Z"/><path fill="#455A64" d="M351.279 111.982V144.183C351.279 145.043 350.632 146.104 349.839 146.538L318.34 163.646C317.546 164.08 316.259 164.08 315.458 163.653L314.571 163.169L312.643 162.121V161.7L310.322 160.445L309.942 160.652H309.935L308.007 159.603L307.62 159.396C307.613 159.396 307.613 159.39 307.606 159.39L307.506 159.333C307.206 159.176 306.933 158.925 306.699 158.63C306.5 158.385 306.333 158.102 306.226 157.795C306.205 157.738 306.186 157.676 306.165 157.612C306.092 157.399 306.058 157.186 306.058 156.978V123.208L306.286 123.089L340.666 104.404C340.806 104.631 340.999 104.825 341.273 104.976L349.839 109.628C350.632 110.061 351.279 111.122 351.279 111.982Z"/><path fill="#263238" d="M318.34 163.646C317.893 163.891 317.392 164.016 316.893 164.016C316.4 164.016 315.899 163.891 315.459 163.652L314.572 163.169L312.644 162.12V161.699L310.323 160.444L309.943 160.651H309.936L308.008 159.603L307.621 159.395C307.614 159.395 307.614 159.389 307.607 159.389C307.247 159.187 306.94 158.93 306.7 158.629C306.5 158.385 306.333 158.102 306.226 157.794C306.206 157.737 306.187 157.675 306.166 157.612C306.093 157.367 306.059 157.109 306.059 156.845L305.92 116.859L306.059 122.302C306.059 122.579 306.14 122.855 306.287 123.087C306.427 123.319 306.64 123.52 306.894 123.659L317.32 129.328C317.066 129.686 316.946 130.144 316.9 130.665V162.86L318.34 163.646Z"/><path fill="#263238" d="M260.113 132.107C259.315 131.673 258.668 130.619 258.668 129.752V118.07L308.771 145.295V158.546L260.113 132.107Z"/><path fill="#37474F" d="M349.839 111.198L318.343 128.312C317.546 128.745 316.899 129.799 316.899 130.666V162.865C316.899 163.732 317.545 164.083 318.343 163.649L349.839 146.535C350.636 146.102 351.283 145.048 351.283 144.181V111.982C351.283 111.115 350.636 110.764 349.839 111.198Z"/><path fill="#CEE3FF" d="M258.642 101.859C257.894 102.266 257.287 103.298 257.287 104.165V121.639C257.287 122.506 257.934 123.56 258.732 123.994L301.907 147.455C302.705 147.889 303.958 147.881 304.706 147.439C305.454 146.996 306.061 145.935 306.061 145.068V127.66C306.061 126.793 305.414 125.74 304.616 125.308L261.441 101.907C260.643 101.474 259.389 101.452 258.642 101.859Z"/><path fill="#000" d="M258.642 101.859C257.894 102.266 257.287 103.298 257.287 104.165V121.639C257.287 122.506 257.934 123.56 258.732 123.994L301.907 147.455C302.705 147.889 303.958 147.881 304.706 147.439C305.454 146.996 306.061 145.935 306.061 145.068V127.66C306.061 126.793 305.414 125.74 304.616 125.308L261.441 101.907C260.643 101.474 259.389 101.452 258.642 101.859Z" opacity=".2"/><path fill="#CEE3FF" d="M258.731 103.38L301.911 126.842C302.708 127.275 303.355 128.329 303.354 129.196L303.351 146.671C303.351 147.538 302.704 147.889 301.906 147.455L258.731 123.994C257.933 123.56 257.286 122.506 257.286 121.639V104.165C257.286 103.298 257.933 102.947 258.731 103.38Z"/><path fill="#000" d="M258.731 103.38L301.911 126.842C302.708 127.275 303.355 128.329 303.354 129.196L303.351 146.671C303.351 147.538 302.704 147.889 301.906 147.455L258.731 123.994C257.933 123.56 257.286 122.506 257.286 121.639V104.165C257.286 103.298 257.933 102.947 258.731 103.38Z" opacity=".4"/><path fill="#000" d="M306.059 127.659V145.068C306.059 145.934 305.452 146.996 304.705 147.435C304.024 147.843 302.924 147.881 302.13 147.554C302.824 147.818 303.351 147.454 303.351 146.669L303.358 129.197C303.358 128.764 303.198 128.28 302.931 127.86V127.853L305.666 126.372C305.906 126.78 306.059 127.244 306.059 127.659Z" opacity=".15"/><path fill="#E6E6E6" d="M274.411 114.845C276.856 116.173 283.782 119.937 286.225 121.265C286.703 121.525 287.09 122.158 287.086 122.678L287.08 123.729C287.076 124.249 286.687 124.46 286.207 124.2L274.41 117.79C273.932 117.529 273.544 116.897 273.544 116.377V115.316C273.544 114.796 273.933 114.586 274.411 114.845Z"/><path fill="#CEE3FF" d="M273.541 134.297C273.541 133.863 273.217 133.336 272.818 133.119L270.205 131.7C270.005 131.592 269.825 131.581 269.694 131.652C269.563 131.723 268.466 132.317 268.336 132.391C268.207 132.463 268.128 132.614 268.128 132.829V134.204C268.128 134.638 268.451 135.164 268.85 135.381L271.463 136.801C271.662 136.909 271.843 136.92 271.974 136.848C272.105 136.778 273.198 136.184 273.329 136.112C273.46 136.041 273.541 135.889 273.541 135.672V134.297Z"/><path fill="#CEE3FF" d="M268.851 132.435L271.464 133.855C271.863 134.072 272.186 134.599 272.186 135.033V136.408C272.186 136.842 271.863 137.017 271.464 136.801L268.851 135.381C268.452 135.164 268.129 134.638 268.129 134.204V132.829C268.129 132.394 268.452 132.219 268.851 132.435Z"/><path fill="#000" d="M273.54 134.296V135.672C273.54 135.886 273.459 136.042 273.326 136.111C273.205 136.173 272.265 136.688 272.018 136.821C272.125 136.739 272.185 136.601 272.185 136.406V135.032C272.185 134.818 272.105 134.58 271.979 134.366L273.333 133.632C273.459 133.845 273.54 134.083 273.54 134.296Z" opacity=".15"/><path fill="#000" d="M273.333 133.631L271.978 134.365C271.852 134.152 271.665 133.964 271.465 133.857L268.85 132.439C268.663 132.338 268.496 132.32 268.37 132.37C268.603 132.244 269.57 131.716 269.698 131.654C269.824 131.579 270.005 131.592 270.204 131.698L272.819 133.117C273.019 133.229 273.199 133.418 273.333 133.631Z" opacity=".25"/><path fill="#CEE3FF" d="M281.67 138.718C281.67 138.284 281.346 137.758 280.948 137.54L278.334 136.12C278.135 136.012 277.954 136.001 277.824 136.073C277.693 136.143 276.596 136.738 276.465 136.811C276.337 136.883 276.257 137.034 276.257 137.248V138.624C276.257 139.057 276.581 139.584 276.979 139.801L279.592 141.22C279.792 141.329 279.973 141.339 280.103 141.268C280.234 141.197 281.328 140.603 281.459 140.531C281.589 140.461 281.67 140.308 281.67 140.091V138.718Z"/><path fill="#CEE3FF" d="M276.98 136.857L279.593 138.277C279.992 138.493 280.315 139.021 280.315 139.454V140.829C280.315 141.263 279.992 141.438 279.593 141.222L276.98 139.803C276.581 139.586 276.258 139.059 276.258 138.625V137.25C276.258 136.817 276.581 136.64 276.98 136.857Z"/><path fill="#000" d="M281.669 138.719V140.093C281.669 140.307 281.588 140.463 281.455 140.532C281.335 140.595 280.394 141.11 280.148 141.242C280.255 141.16 280.315 141.022 280.315 140.828V139.452C280.315 139.239 280.235 139.001 280.108 138.787L281.462 138.052C281.588 138.267 281.669 138.505 281.669 138.719Z" opacity=".15"/><path fill="#000" d="M281.462 138.053L280.108 138.788C279.981 138.574 279.794 138.386 279.594 138.279L276.979 136.861C276.793 136.76 276.626 136.742 276.499 136.792C276.733 136.666 277.7 136.138 277.827 136.076C277.953 136 278.134 136.013 278.334 136.12L280.948 137.539C281.148 137.651 281.329 137.84 281.462 138.053Z" opacity=".25"/><path fill="#CEE3FF" d="M289.799 143.14C289.799 142.706 289.476 142.18 289.077 141.963L286.464 140.543C286.264 140.435 286.084 140.424 285.953 140.496C285.822 140.566 284.725 141.161 284.594 141.235C284.466 141.306 284.386 141.458 284.386 141.672V143.047C284.386 143.481 284.71 144.008 285.109 144.225L287.722 145.645C287.921 145.753 288.102 145.764 288.233 145.692C288.363 145.622 289.457 145.028 289.588 144.956C289.719 144.885 289.799 144.733 289.799 144.516V143.14Z"/><path fill="#CEE3FF" d="M285.109 141.279L287.722 142.7C288.12 142.916 288.444 143.443 288.444 143.877V145.252C288.444 145.686 288.12 145.861 287.722 145.645L285.109 144.225C284.71 144.008 284.386 143.481 284.386 143.047V141.672C284.386 141.238 284.71 141.062 285.109 141.279Z"/><path fill="#000" d="M289.797 143.141V144.516C289.797 144.73 289.717 144.886 289.583 144.955C289.463 145.018 288.523 145.533 288.276 145.665C288.383 145.583 288.443 145.445 288.443 145.251V143.875C288.443 143.661 288.364 143.423 288.236 143.21L289.591 142.475C289.718 142.688 289.797 142.927 289.797 143.141Z" opacity=".15"/><path fill="#000" d="M289.59 142.475L288.236 143.21C288.11 142.996 287.922 142.808 287.723 142.701L285.108 141.283C284.921 141.182 284.754 141.164 284.628 141.214C284.861 141.088 285.828 140.561 285.955 140.498C286.082 140.422 286.262 140.435 286.462 140.542L289.077 141.961C289.278 142.073 289.457 142.261 289.59 142.475Z" opacity=".25"/><path fill="#455A64" d="M314.571 141.182V163.169L312.643 162.12V161.699L310.322 160.444L309.942 160.651H309.935L308.007 159.603V137.609C308.007 136.743 308.654 136.391 309.448 136.825L313.13 138.828C313.924 139.261 314.571 140.316 314.571 141.182Z"/><path fill="#263238" d="M312.643 153.941V161.7L310.322 160.445L309.942 160.652H309.935V152.466C309.928 152.183 310.102 152.039 310.341 152.089C310.394 152.095 310.448 152.12 310.508 152.151L312.07 152.999C312.39 153.175 312.643 153.595 312.643 153.941Z"/><path fill="#37474F" d="M312.643 153.941V161.7L310.322 160.445V152.258C310.322 152.195 310.329 152.139 310.342 152.089C310.395 152.095 310.449 152.12 310.509 152.151L312.071 152.999C312.39 153.175 312.643 153.595 312.643 153.941Z"/><path fill="#CEE3FF" d="M311.113 153.688L310.815 153.85L310.83 153.874C310.796 153.926 310.776 153.994 310.776 154.078C310.776 154.354 310.982 154.69 311.237 154.829C311.314 154.871 311.387 154.889 311.451 154.888L311.466 154.912L311.765 154.749C311.848 154.705 311.899 154.607 311.899 154.469C311.899 154.193 311.693 153.857 311.439 153.719C311.312 153.649 311.196 153.643 311.113 153.688Z"/><path fill="#000" d="M311.113 153.688L310.815 153.85L310.83 153.874C310.796 153.926 310.776 153.994 310.776 154.078C310.776 154.354 310.982 154.69 311.237 154.829C311.314 154.871 311.387 154.889 311.451 154.888L311.466 154.912L311.765 154.749C311.848 154.705 311.899 154.607 311.899 154.469C311.899 154.193 311.693 153.857 311.439 153.719C311.312 153.649 311.196 153.643 311.113 153.688Z" opacity=".15"/><path fill="#CEE3FF" d="M311.6 154.631C311.6 154.908 311.394 155.02 311.14 154.882C310.885 154.744 310.679 154.408 310.679 154.131C310.679 153.855 310.885 153.743 311.14 153.881C311.394 154.019 311.6 154.355 311.6 154.631Z"/><path fill="#CEE3FF" d="M310.903 140.941L310.247 141.297L310.28 141.35C310.205 141.462 310.163 141.613 310.163 141.798C310.163 142.404 310.615 143.141 311.173 143.444C311.343 143.537 311.503 143.577 311.644 143.573L311.676 143.626L312.332 143.27C312.515 143.171 312.628 142.958 312.628 142.655C312.628 142.048 312.176 141.311 311.618 141.008C311.339 140.856 311.086 140.841 310.903 140.941Z"/><path fill="#000" d="M310.903 140.941L310.247 141.297L310.28 141.35C310.205 141.462 310.163 141.613 310.163 141.798C310.163 142.404 310.615 143.141 311.173 143.444C311.343 143.537 311.503 143.577 311.644 143.573L311.676 143.626L312.332 143.27C312.515 143.171 312.628 142.958 312.628 142.655C312.628 142.048 312.176 141.311 311.618 141.008C311.339 140.856 311.086 140.841 310.903 140.941Z" opacity=".15"/><path fill="#CEE3FF" d="M311.972 143.011C311.972 143.617 311.519 143.863 310.961 143.56C310.403 143.257 309.951 142.519 309.951 141.913C309.951 141.307 310.403 141.061 310.961 141.364C311.519 141.667 311.972 142.404 311.972 143.011Z"/><path fill="#CEE3FF" d="M311.113 156.666L310.815 156.828L310.83 156.852C310.796 156.904 310.776 156.972 310.776 157.056C310.776 157.332 310.982 157.668 311.237 157.806C311.314 157.848 311.387 157.867 311.451 157.865L311.466 157.889L311.765 157.727C311.848 157.682 311.899 157.585 311.899 157.447C311.899 157.171 311.693 156.834 311.439 156.696C311.312 156.626 311.196 156.62 311.113 156.666Z"/><path fill="#000" d="M311.113 156.666L310.815 156.828L310.83 156.852C310.796 156.904 310.776 156.972 310.776 157.056C310.776 157.332 310.982 157.668 311.237 157.806C311.314 157.848 311.387 157.867 311.451 157.865L311.466 157.889L311.765 157.727C311.848 157.682 311.899 157.585 311.899 157.447C311.899 157.171 311.693 156.834 311.439 156.696C311.312 156.626 311.196 156.62 311.113 156.666Z" opacity=".15"/><path fill="#CEE3FF" d="M311.6 157.608C311.6 157.884 311.394 157.997 311.14 157.859C310.885 157.721 310.679 157.384 310.679 157.108C310.679 156.832 310.885 156.72 311.14 156.858C311.394 156.996 311.6 157.332 311.6 157.608Z"/><path fill="#263238" d="M311.05 145.334L310.645 145.554L310.665 145.587C310.619 145.657 310.593 145.75 310.593 145.864C310.593 146.239 310.874 146.695 311.218 146.883C311.324 146.94 311.423 146.965 311.509 146.963L311.53 146.995L311.935 146.775C312.048 146.713 312.118 146.582 312.118 146.394C312.118 146.018 311.838 145.563 311.493 145.375C311.32 145.281 311.164 145.272 311.05 145.334Z"/><path fill="#37474F" d="M311.712 146.614C311.712 146.989 311.431 147.142 311.087 146.954C310.741 146.766 310.462 146.31 310.462 145.934C310.462 145.559 310.742 145.407 311.087 145.595C311.431 145.783 311.712 146.24 311.712 146.614Z"/><path fill="#263238" d="M311.05 148.553L310.645 148.773L310.665 148.806C310.619 148.876 310.593 148.969 310.593 149.083C310.593 149.458 310.874 149.914 311.218 150.102C311.324 150.159 311.423 150.184 311.509 150.182L311.53 150.214L311.935 149.994C312.048 149.932 312.118 149.801 312.118 149.613C312.118 149.237 311.838 148.782 311.493 148.594C311.32 148.5 311.164 148.491 311.05 148.553Z"/><path fill="#37474F" d="M311.712 149.833C311.712 150.208 311.431 150.361 311.087 150.173C310.741 149.985 310.462 149.529 310.462 149.153C310.462 148.778 310.742 148.626 311.087 148.814C311.431 149.002 311.712 149.458 311.712 149.833Z"/><path fill="#CEE3FF" d="M322.99 122.427C322.99 122.198 322.808 121.913 322.582 121.791L318.744 119.714C318.519 119.592 318.154 119.592 317.93 119.714L312.636 122.574C312.412 122.697 312.237 122.985 312.246 123.22C312.255 123.455 312.444 123.743 312.67 123.866L316.491 125.932C316.715 126.055 317.08 126.055 317.305 125.932L322.582 123.063C322.808 122.941 322.99 122.656 322.99 122.427Z"/><path fill="#fff" d="M322.99 122.427C322.99 122.198 322.808 121.913 322.582 121.791L318.744 119.714C318.519 119.592 318.154 119.592 317.93 119.714L312.636 122.574C312.412 122.697 312.237 122.985 312.246 123.22C312.255 123.455 312.444 123.743 312.67 123.866L316.491 125.932C316.715 126.055 317.08 126.055 317.305 125.932L322.582 123.063C322.808 122.941 322.99 122.656 322.99 122.427Z" opacity=".2"/><path fill="#CEE3FF" d="M322.583 122.233L317.289 125.095C317.064 125.217 316.699 125.217 316.475 125.095L312.637 123.017C312.413 122.895 312.413 122.697 312.637 122.574L317.931 119.714C318.155 119.592 318.52 119.592 318.745 119.714L322.583 121.791C322.808 121.913 322.808 122.111 322.583 122.233Z"/><path fill="#fff" d="M322.583 122.233L317.289 125.095C317.064 125.217 316.699 125.217 316.475 125.095L312.637 123.017C312.413 122.895 312.413 122.697 312.637 122.574L317.931 119.714C318.155 119.592 318.52 119.592 318.745 119.714L322.583 121.791C322.808 121.913 322.808 122.111 322.583 122.233Z" opacity=".5"/><path fill="#000" d="M316.491 125.932L312.67 123.865C312.445 123.743 312.255 123.454 312.246 123.22C312.237 123.006 312.382 122.748 312.579 122.612C312.413 122.734 312.433 122.906 312.636 123.017L316.473 125.095C316.585 125.155 316.734 125.187 316.88 125.185L316.882 125.186L316.881 126.023C316.741 126.021 316.598 125.991 316.491 125.932Z" opacity=".15"/><path fill="#CEE3FF" d="M321.233 120.779V121.707C321.233 121.88 321.104 122.091 320.944 122.178L317.001 124.32C316.841 124.406 316.583 124.406 316.423 124.32L314.291 123.161C314.132 123.074 314.002 122.875 314.002 122.715C314.002 122.555 314.131 122.356 314.291 122.269L316.423 121.11C316.582 121.024 316.811 120.847 316.931 120.717L318.305 119.23C318.426 119.099 318.653 119.063 318.812 119.15L320.944 120.308C321.104 120.395 321.233 120.606 321.233 120.779Z"/><path fill="#000" d="M321.233 120.779V121.707C321.233 121.88 321.104 122.091 320.944 122.178L317.001 124.32C316.841 124.406 316.583 124.406 316.423 124.32L314.291 123.161C314.132 123.074 314.002 122.875 314.002 122.715C314.002 122.555 314.131 122.356 314.291 122.269L316.423 121.11C316.582 121.024 316.811 120.847 316.931 120.717L318.305 119.23C318.426 119.099 318.653 119.063 318.812 119.15L320.944 120.308C321.104 120.395 321.233 120.606 321.233 120.779Z" opacity=".3"/><path fill="#CEE3FF" d="M317.002 123.742L319.134 122.584C319.293 122.497 319.521 122.321 319.641 122.19L321.015 120.703C321.136 120.573 321.104 120.396 320.945 120.31L318.813 119.152C318.653 119.065 318.426 119.101 318.305 119.231L316.932 120.718C316.811 120.849 316.583 121.025 316.424 121.112L314.292 122.271C314.133 122.357 314.133 122.498 314.292 122.584L316.424 123.743C316.583 123.828 316.842 123.828 317.002 123.742Z"/><path fill="#000" d="M320.944 120.308L318.812 119.15C318.652 119.063 318.425 119.099 318.305 119.23L316.931 120.717C316.868 120.784 316.778 120.864 316.682 120.937L319.393 122.409C319.488 122.336 319.578 122.257 319.64 122.189L321.014 120.702C321.135 120.571 321.104 120.395 320.944 120.308Z" opacity=".15"/><path fill="#000" d="M316.682 123.803V124.381C316.589 124.374 316.496 124.362 316.423 124.318L314.295 123.163C314.135 123.074 314.001 122.874 314.001 122.717C314.001 122.572 314.108 122.403 314.242 122.315C314.135 122.39 314.155 122.51 314.295 122.584L316.423 123.739C316.496 123.777 316.59 123.803 316.682 123.803Z" opacity=".15"/><path fill="#000" d="M319.393 122.409L316.682 120.937C316.593 121.005 316.5 121.068 316.423 121.111L314.291 122.27C314.132 122.356 314.132 122.497 314.291 122.584L316.423 123.742C316.583 123.828 316.841 123.828 317.001 123.742L319.134 122.584C319.211 122.541 319.303 122.478 319.393 122.409Z" opacity=".05"/><path fill="#263238" d="M302.446 108.808V108.161H302.61C302.778 107.866 303.075 107.588 303.505 107.355C304.915 106.588 307.203 106.588 308.615 107.355C309.045 107.588 309.342 107.866 309.51 108.161H309.674V108.808C309.674 109.311 309.321 109.813 308.616 110.197C307.205 110.964 304.916 110.964 303.505 110.197C302.8 109.813 302.446 109.311 302.446 108.808Z"/><path fill="#37474F" d="M308.616 109.549C310.027 108.782 310.027 107.539 308.616 106.772C307.205 106.005 304.916 106.005 303.506 106.772C302.095 107.539 302.095 108.782 303.506 109.549C304.916 110.317 307.204 110.317 308.616 109.549Z"/><path fill="#CEE3FF" d="M303.259 107.904V106.782H303.386C303.516 106.553 303.747 106.338 304.079 106.157C305.173 105.563 306.947 105.563 308.041 106.157C308.374 106.338 308.604 106.553 308.735 106.782H308.862V107.904C308.862 108.293 308.589 108.683 308.042 108.98C306.948 109.574 305.174 109.574 304.08 108.98C303.532 108.683 303.259 108.294 303.259 107.904Z"/><path fill="#000" d="M303.259 107.904V106.782H303.386C303.516 106.553 303.747 106.338 304.079 106.157C305.173 105.563 306.947 105.563 308.041 106.157C308.374 106.338 308.604 106.553 308.735 106.782H308.862V107.904C308.862 108.293 308.589 108.683 308.042 108.98C306.948 109.574 305.174 109.574 304.08 108.98C303.532 108.683 303.259 108.294 303.259 107.904Z" opacity=".15"/><path fill="#CEE3FF" d="M308.041 107.859C309.135 107.264 309.135 106.3 308.041 105.706C306.947 105.112 305.174 105.112 304.079 105.706C302.986 106.3 302.986 107.264 304.079 107.859C305.174 108.454 306.947 108.454 308.041 107.859Z"/><path fill="#263238" d="M316.585 104.96L313.624 106.568C313.326 106.727 312.844 106.727 312.545 106.568L309.589 104.96C309.291 104.796 309.291 104.535 309.589 104.375L312.545 102.766C312.843 102.602 313.325 102.602 313.624 102.766L316.585 104.375C316.883 104.534 316.883 104.796 316.585 104.96Z"/><path fill="#37474F" d="M316.585 104.96L313.624 106.568C313.326 106.727 312.844 106.727 312.545 106.568L309.589 104.96L312.545 103.351C312.843 103.192 313.325 103.192 313.624 103.351L316.585 104.96Z"/><path fill="#CEE3FF" d="M311.797 104.924V104.408H311.856C311.916 104.303 312.022 104.203 312.175 104.12C312.679 103.846 313.495 103.846 313.999 104.12C314.151 104.203 314.258 104.302 314.318 104.408H314.376V104.924C314.376 105.104 314.25 105.283 313.999 105.42C313.495 105.694 312.679 105.694 312.175 105.42C311.924 105.283 311.797 105.103 311.797 104.924Z"/><path fill="#000" d="M311.797 104.924V104.408H311.856C311.916 104.303 312.022 104.203 312.175 104.12C312.679 103.846 313.495 103.846 313.999 104.12C314.151 104.203 314.258 104.302 314.318 104.408H314.376V104.924C314.376 105.104 314.25 105.283 313.999 105.42C313.495 105.694 312.679 105.694 312.175 105.42C311.924 105.283 311.797 105.103 311.797 104.924Z" opacity=".15"/><path fill="#CEE3FF" d="M313.999 104.904C314.503 104.63 314.503 104.186 313.999 103.913C313.496 103.639 312.68 103.639 312.176 103.913C311.672 104.186 311.672 104.63 312.176 104.904C312.679 105.177 313.496 105.177 313.999 104.904Z"/><path fill="#263238" d="M322.412 101.794L319.45 103.403C319.152 103.562 318.67 103.562 318.372 103.403L315.416 101.794C315.118 101.63 315.118 101.369 315.416 101.209L318.372 99.6004C318.67 99.4365 319.152 99.4365 319.45 99.6004L322.412 101.209C322.709 101.368 322.709 101.63 322.412 101.794Z"/><path fill="#37474F" d="M322.412 101.794L319.45 103.403C319.152 103.562 318.67 103.562 318.372 103.403L315.416 101.794L318.372 100.185C318.67 100.026 319.152 100.026 319.45 100.185L322.412 101.794Z"/><path fill="#CEE3FF" d="M317.624 101.758V101.242H317.682C317.742 101.137 317.848 101.037 318.001 100.954C318.505 100.68 319.321 100.68 319.825 100.954C319.978 101.037 320.084 101.136 320.144 101.242H320.203V101.758C320.203 101.937 320.077 102.116 319.825 102.254C319.321 102.527 318.505 102.527 318.001 102.254C317.749 102.117 317.624 101.937 317.624 101.758Z"/><path fill="#000" d="M317.624 101.758V101.242H317.682C317.742 101.137 317.848 101.037 318.001 100.954C318.505 100.68 319.321 100.68 319.825 100.954C319.978 101.037 320.084 101.136 320.144 101.242H320.203V101.758C320.203 101.937 320.077 102.116 319.825 102.254C319.321 102.527 318.505 102.527 318.001 102.254C317.749 102.117 317.624 101.937 317.624 101.758Z" opacity=".15"/><path fill="#CEE3FF" d="M319.825 101.738C320.329 101.464 320.329 101.021 319.825 100.747C319.321 100.473 318.505 100.473 318.001 100.747C317.497 101.021 317.497 101.464 318.001 101.738C318.505 102.011 319.322 102.011 319.825 101.738Z"/><path fill="#CEE3FF" d="M347.302 126.707L347.296 126.702L346.952 126.516C344.932 125.512 342.184 125.707 339.155 127.343C332.906 130.726 327.831 138.962 327.817 145.746C327.815 146.999 327.984 148.118 328.306 149.084C328.738 150.376 329.43 151.396 330.329 152.12C330.551 152.297 330.783 152.455 331.025 152.593L331.04 152.602C331.055 152.612 331.066 152.616 331.081 152.621L331.131 152.65L331.318 152.75L338.904 156.887C338.591 156.706 338.302 156.491 338.03 156.257C336.556 154.983 335.685 152.853 335.691 150.03C335.705 143.251 340.78 135.01 347.029 131.632C349.627 130.228 352.02 129.885 353.926 130.455C354.25 130.546 354.553 130.666 354.846 130.814L347.302 126.707Z"/><path fill="#000" d="M347.302 126.707L347.296 126.702L346.952 126.516C344.932 125.512 342.184 125.707 339.155 127.343C332.906 130.726 327.831 138.962 327.817 145.746C327.815 146.999 327.984 148.118 328.306 149.084C328.738 150.376 329.43 151.396 330.329 152.12C330.551 152.297 330.783 152.455 331.025 152.593L331.04 152.602C331.055 152.612 331.066 152.616 331.081 152.621L331.131 152.65L331.318 152.75L338.904 156.887C338.591 156.706 338.302 156.491 338.03 156.257C336.556 154.983 335.685 152.853 335.691 150.03C335.705 143.251 340.78 135.01 347.029 131.632C349.627 130.228 352.02 129.885 353.926 130.455C354.25 130.546 354.553 130.666 354.846 130.814L347.302 126.707Z" opacity=".25"/><path fill="#455A64" d="M330.329 152.121C330.546 152.298 330.783 152.456 331.025 152.594L327.023 150.411C327.013 150.406 327.008 150.401 327.003 150.396L326.958 150.372C324.947 149.245 323.708 146.872 323.715 143.511C323.729 136.732 328.805 128.491 335.053 125.113C336.866 124.131 338.582 123.668 340.099 123.67C341.197 123.672 342.192 123.916 343.046 124.385L346.951 126.516C344.931 125.512 342.183 125.707 339.155 127.343C332.906 130.726 327.831 138.962 327.816 145.746C327.814 146.999 327.983 148.118 328.305 149.084C328.73 150.377 329.425 151.401 330.329 152.121Z"/><path fill="#37474F" d="M370.63 144.518C370.616 151.302 365.54 159.538 359.292 162.916C357.479 163.897 355.763 164.366 354.246 164.363C353.159 164.362 352.173 164.117 351.319 163.658L351.304 163.649C351.299 163.649 351.299 163.649 351.299 163.649L339.072 156.975L338.905 156.889C338.592 156.708 338.304 156.493 338.032 156.26C336.557 154.986 335.687 152.856 335.693 150.033C335.707 143.254 340.782 135.013 347.031 131.635C349.629 130.23 352.022 129.888 353.928 130.458C354.252 130.548 354.555 130.668 354.848 130.816L354.899 130.84L355.217 131.017L367.322 137.619V137.624C369.373 138.73 370.637 141.118 370.63 144.518Z"/><path fill="#37474F" d="M334.994 153.881C334.935 153.881 334.877 153.868 334.823 153.838L330.543 151.522C330.379 151.434 330.323 151.238 330.418 151.084C330.512 150.93 330.721 150.878 330.884 150.966L335.164 153.282C335.328 153.37 335.383 153.566 335.289 153.72C335.226 153.823 335.11 153.881 334.994 153.881Z"/><path fill="#37474F" d="M334.148 151.025C334.09 151.025 334.031 151.012 333.977 150.982L329.697 148.667C329.533 148.579 329.477 148.382 329.572 148.228C329.665 148.074 329.874 148.022 330.038 148.111L334.318 150.426C334.482 150.515 334.537 150.711 334.443 150.865C334.38 150.967 334.264 151.025 334.148 151.025Z"/><path fill="#37474F" d="M333.839 148.31C333.781 148.31 333.722 148.296 333.668 148.267L329.388 145.951C329.225 145.863 329.169 145.667 329.263 145.513C329.357 145.359 329.568 145.307 329.729 145.395L334.01 147.711C334.173 147.799 334.229 147.995 334.134 148.149C334.072 148.252 333.957 148.31 333.839 148.31Z"/><path fill="#37474F" d="M334.003 145.844C333.944 145.844 333.886 145.83 333.832 145.801L329.552 143.484C329.388 143.396 329.332 143.2 329.427 143.046C329.521 142.893 329.73 142.84 329.893 142.928L334.173 145.245C334.337 145.333 334.392 145.529 334.298 145.683C334.235 145.786 334.12 145.844 334.003 145.844Z"/><path fill="#37474F" d="M334.728 143.481C334.67 143.481 334.612 143.467 334.558 143.438L330.277 141.122C330.113 141.034 330.057 140.838 330.152 140.684C330.246 140.531 330.455 140.477 330.618 140.566L334.899 142.882C335.063 142.97 335.118 143.166 335.024 143.32C334.961 143.423 334.846 143.481 334.728 143.481Z"/><path fill="#37474F" d="M335.734 141.145C335.675 141.145 335.617 141.131 335.563 141.102L331.282 138.786C331.118 138.698 331.062 138.501 331.157 138.347C331.251 138.194 331.461 138.141 331.623 138.23L335.904 140.546C336.068 140.635 336.123 140.831 336.029 140.985C335.966 141.088 335.85 141.145 335.734 141.145Z"/><path fill="#37474F" d="M336.987 138.883C336.93 138.883 336.87 138.869 336.816 138.84L332.535 136.525C332.372 136.436 332.316 136.24 332.411 136.086C332.504 135.932 332.713 135.881 332.876 135.969L337.157 138.284C337.32 138.372 337.376 138.569 337.281 138.723C337.22 138.826 337.105 138.883 336.987 138.883Z"/><path fill="#37474F" d="M338.461 136.744C338.403 136.744 338.345 136.73 338.291 136.701L334.011 134.385C333.847 134.297 333.791 134.101 333.886 133.947C333.98 133.793 334.189 133.741 334.352 133.83L338.632 136.145C338.796 136.233 338.851 136.43 338.757 136.584C338.694 136.686 338.579 136.744 338.461 136.744Z"/><path fill="#37474F" d="M340.128 134.775C340.069 134.775 340.011 134.761 339.957 134.732L335.676 132.415C335.512 132.327 335.457 132.131 335.551 131.977C335.645 131.823 335.855 131.771 336.017 131.86L340.298 134.176C340.461 134.264 340.517 134.46 340.422 134.614C340.36 134.717 340.245 134.775 340.128 134.775Z"/><path fill="#37474F" d="M341.954 133.023C341.896 133.023 341.837 133.009 341.784 132.979L337.503 130.664C337.34 130.576 337.284 130.379 337.379 130.225C337.472 130.072 337.682 130.02 337.844 130.108L342.125 132.424C342.288 132.512 342.344 132.708 342.249 132.862C342.187 132.965 342.072 133.023 341.954 133.023Z"/><path fill="#37474F" d="M343.913 131.537C343.855 131.537 343.796 131.523 343.743 131.493L339.462 129.178C339.299 129.09 339.243 128.893 339.338 128.74C339.431 128.586 339.641 128.534 339.803 128.622L344.084 130.938C344.247 131.026 344.303 131.222 344.208 131.376C344.146 131.479 344.031 131.537 343.913 131.537Z"/><path fill="#37474F" d="M346.247 130.24C346.189 130.24 346.13 130.225 346.076 130.196L341.796 127.88C341.632 127.792 341.577 127.596 341.671 127.442C341.765 127.288 341.975 127.235 342.137 127.324L346.418 129.641C346.581 129.729 346.637 129.925 346.542 130.079C346.479 130.181 346.364 130.24 346.247 130.24Z"/><path fill="#37474F" d="M348.973 129.378C348.916 129.378 348.856 129.364 348.802 129.334L344.522 127.019C344.359 126.931 344.303 126.734 344.398 126.58C344.491 126.427 344.701 126.374 344.863 126.463L349.144 128.779C349.307 128.867 349.363 129.063 349.268 129.217C349.206 129.319 349.09 129.378 348.973 129.378Z"/><path fill="#000" d="M346.884 148.352C345.844 150.832 345.25 153.388 345.244 155.773C345.237 157.964 345.737 159.753 346.611 161.084L339.073 156.978L338.906 156.89C338.899 156.89 338.899 156.884 338.893 156.884L331.321 152.753L331.135 152.652L331.082 152.62C331.069 152.614 331.055 152.614 331.042 152.601L331.029 152.595L327.026 150.41C327.013 150.404 327.013 150.397 327.006 150.397L326.959 150.372C324.951 149.243 323.71 146.869 323.717 143.51C323.724 141.263 324.284 138.852 325.258 136.516L346.884 148.352Z" opacity=".15"/><path fill="#455A64" d="M366.415 133.508C363.969 132.166 360.589 132.342 356.842 134.369C349.35 138.422 343.262 148.301 343.245 156.433C343.237 160.417 344.691 163.233 347.056 164.598C347.852 165.058 353.178 167.776 353.931 168.19C356.378 169.538 359.762 169.364 363.513 167.335C371.005 163.283 377.093 153.404 377.11 145.271C377.118 141.255 375.641 138.427 373.243 137.075C372.462 136.633 367.172 133.923 366.415 133.508Z"/><path fill="#455A64" d="M344.819 162.466C344.895 162.58 344.97 162.694 345.054 162.801C344.962 162.687 344.879 162.573 344.796 162.452L344.811 162.46C344.811 162.466 344.819 162.466 344.819 162.466Z"/><path fill="#37474F" d="M349.978 159.947C349.962 168.081 356.021 171.388 363.513 167.335C371.005 163.283 377.093 153.404 377.11 145.271C377.127 137.137 371.067 133.83 363.575 137.882C356.083 141.935 349.996 151.813 349.978 159.947Z"/><path fill="#263238" d="M357.466 165.927C353.709 165.919 353.311 161.747 353.314 159.953C353.33 152.953 358.789 144.092 365.237 140.604C366.83 139.743 368.347 139.288 369.623 139.291C373.38 139.298 373.778 143.471 373.775 145.265C373.76 152.264 368.3 161.125 361.852 164.613C360.259 165.475 358.742 165.929 357.466 165.927Z"/><path fill="#CEE3FF" d="M369.335 141.07C369.336 140.609 369.31 139.99 369.207 139.326C368.02 139.408 366.664 139.833 365.237 140.605C358.789 144.093 353.33 152.953 353.314 159.954C353.314 160.415 353.34 161.034 353.443 161.698C354.63 161.615 355.986 161.191 357.413 160.419C363.861 156.93 369.321 148.07 369.335 141.07Z"/><path fill="#000" d="M369.335 141.07C369.336 140.609 369.31 139.99 369.207 139.326C368.02 139.408 366.664 139.833 365.237 140.605C358.789 144.093 353.33 152.953 353.314 159.954C353.314 160.415 353.34 161.034 353.443 161.698C354.63 161.615 355.986 161.191 357.413 160.419C363.861 156.93 369.321 148.07 369.335 141.07Z" opacity=".3"/><path fill="#E0E0E0" d="M361.746 144.535C364.291 141.641 367.575 140.68 368.085 141.755C368.595 142.829 366.976 153.277 356.24 159.413C356.24 159.413 362.049 154.7 364.875 148.762C366.529 145.287 365.026 142.438 361.746 144.535Z"/><path fill="#000" d="M353.607 168.018C353.562 167.997 353.516 167.968 353.471 167.948C353.433 167.926 353.403 167.912 353.365 167.89C353.297 167.854 353.222 167.819 353.138 167.776C353.085 167.74 353.025 167.712 352.956 167.676C352.828 167.612 352.692 167.541 352.548 167.47C352.268 167.32 351.958 167.157 351.633 166.993C350.559 166.438 349.327 165.798 348.397 165.313C348.11 165.157 347.852 165.021 347.641 164.915C347.377 164.773 347.172 164.659 347.058 164.595C346.756 164.424 346.469 164.224 346.204 164.004C346.075 163.904 345.954 163.79 345.833 163.677C345.629 163.492 345.44 163.285 345.274 163.072C345.191 162.98 345.122 162.894 345.054 162.802C344.971 162.695 344.895 162.581 344.82 162.467C344.82 162.467 344.813 162.467 344.813 162.46L344.798 162.452C343.807 160.943 343.24 158.915 343.248 156.431C343.255 153.726 343.928 150.829 345.107 148.018C345.259 147.655 345.418 147.299 345.584 146.95C345.705 146.687 345.826 146.424 345.962 146.167C346.091 145.905 346.227 145.648 346.363 145.392C346.363 145.385 346.363 145.378 346.37 145.37L353.04 149.015C351.135 152.573 349.985 156.424 349.977 159.947C349.969 162.396 350.514 164.402 351.482 165.912C352.057 166.794 352.767 167.498 353.607 168.018Z" opacity=".15"/><path fill="#263238" d="M292.898 82.4321V81.531H293.127C293.361 81.1208 293.774 80.7339 294.372 80.4086C296.337 79.3403 299.524 79.3403 301.489 80.4086C302.088 80.7339 302.5 81.1208 302.735 81.531H302.963V82.4329C302.963 83.1326 302.471 83.8323 301.489 84.3665C299.524 85.4348 296.337 85.4348 294.372 84.3665C293.39 83.8323 292.898 83.1318 292.898 82.4321Z"/><path fill="#37474F" d="M301.489 83.4646C303.454 82.3963 303.454 80.6649 301.489 79.5975C299.524 78.5292 296.337 78.5292 294.372 79.5975C292.407 80.6657 292.407 82.3971 294.372 83.4646C296.337 84.532 299.524 84.5329 301.489 83.4646Z"/><path fill="#263238" d="M325.611 79.555L302.617 67.0609C301.396 66.4019 299.936 66.4019 298.715 67.0609C297.494 67.7265 296.761 68.9195 296.761 70.2441V81.0992V81.1242C296.768 81.2814 296.881 81.4378 297.107 81.551C297.561 81.8022 298.301 81.8022 298.755 81.551C298.975 81.4378 299.088 81.2806 299.095 81.1242V81.0992V70.2441C299.095 69.7108 299.389 69.2332 299.882 68.9695C300.375 68.6991 300.956 68.6991 301.449 68.9695L324.443 81.4636C325.004 81.7648 325.717 81.5826 326.037 81.0618C326.359 80.5343 326.171 79.8628 325.611 79.555Z"/><path fill="#CEE3FF" d="M357.043 95.2357L357.044 95.2332C355.611 92.9044 329.238 76.9184 322.392 73.1877C321.692 72.7659 320.706 72.7992 319.609 73.3949C317.49 74.5464 315.772 77.3469 315.772 79.649C315.772 80.8396 316.234 81.6608 316.971 82.0194C323.87 85.7609 351.12 99.4132 354.835 99.2559C356.332 99.2559 357.545 98.1144 357.545 96.7058C357.544 96.1576 357.356 95.6517 357.043 95.2357Z"/><path fill="#000" d="M357.421 97.4255C356.653 98.4447 355.294 98.9681 351.036 97.225C347.075 95.6034 324.055 82.9546 315.904 78.5009C315.82 78.8902 315.77 79.2771 315.77 79.6499C315.77 80.8404 316.232 81.6616 316.969 82.0202C323.868 85.7617 351.118 99.414 354.833 99.2568C356.063 99.2559 357.089 98.4805 357.421 97.4255Z" opacity=".1"/><path fill="#CEE3FF" d="M291.438 105.25C291.438 105.021 291.62 104.735 291.846 104.613L295.684 102.536C295.908 102.414 296.273 102.414 296.498 102.536L299.235 104.025C299.459 104.147 299.634 104.436 299.626 104.671C299.617 104.905 299.427 105.194 299.201 105.316L295.381 107.383C295.156 107.505 294.791 107.505 294.566 107.382L291.846 105.885C291.62 105.764 291.438 105.478 291.438 105.25Z"/><path fill="#fff" d="M291.438 105.25C291.438 105.021 291.62 104.735 291.846 104.613L295.684 102.536C295.908 102.414 296.273 102.414 296.498 102.536L299.235 104.025C299.459 104.147 299.634 104.436 299.626 104.671C299.617 104.905 299.427 105.194 299.201 105.316L295.381 107.383C295.156 107.505 294.791 107.505 294.566 107.382L291.846 105.885C291.62 105.764 291.438 105.478 291.438 105.25Z" opacity=".2"/><path fill="#CEE3FF" d="M291.846 105.056L294.583 106.545C294.808 106.667 295.173 106.667 295.397 106.545L299.235 104.468C299.459 104.345 299.459 104.147 299.235 104.025L296.498 102.536C296.273 102.414 295.908 102.414 295.684 102.536L291.846 104.613C291.621 104.735 291.621 104.933 291.846 105.056Z"/><path fill="#fff" d="M291.846 105.056L294.583 106.545C294.808 106.667 295.173 106.667 295.397 106.545L299.235 104.468C299.459 104.345 299.459 104.147 299.235 104.025L296.498 102.536C296.273 102.414 295.908 102.414 295.684 102.536L291.846 104.613C291.621 104.735 291.621 104.933 291.846 105.056Z" opacity=".5"/><path fill="#000" d="M295.381 107.383L299.202 105.315C299.427 105.193 299.617 104.904 299.626 104.671C299.635 104.457 299.49 104.198 299.293 104.062C299.459 104.185 299.439 104.357 299.236 104.468L295.399 106.545C295.287 106.606 295.139 106.637 294.992 106.636L294.99 106.637L294.991 107.474C295.13 107.472 295.273 107.442 295.381 107.383Z" opacity=".15"/><path fill="#CEE3FF" d="M266.989 92.0317C266.989 91.8029 267.171 91.5175 267.397 91.3952L271.235 89.3185C271.46 89.1962 271.825 89.1962 272.049 89.3185L274.786 90.807C275.011 90.9293 275.186 91.218 275.177 91.4526C275.167 91.6872 274.978 91.9759 274.753 92.0982L270.932 94.1649C270.707 94.2872 270.342 94.2872 270.118 94.1649L267.397 92.6682C267.171 92.5459 266.989 92.2605 266.989 92.0317Z"/><path fill="#fff" d="M266.989 92.0317C266.989 91.8029 267.171 91.5175 267.397 91.3952L271.235 89.3185C271.46 89.1962 271.825 89.1962 272.049 89.3185L274.786 90.807C275.011 90.9293 275.186 91.218 275.177 91.4526C275.167 91.6872 274.978 91.9759 274.753 92.0982L270.932 94.1649C270.707 94.2872 270.342 94.2872 270.118 94.1649L267.397 92.6682C267.171 92.5459 266.989 92.2605 266.989 92.0317Z" opacity=".2"/><path fill="#CEE3FF" d="M267.397 91.8378L270.134 93.3271C270.359 93.4494 270.724 93.4494 270.949 93.3271L274.786 91.2496C275.011 91.1273 275.011 90.9293 274.786 90.807L272.049 89.3185C271.825 89.1962 271.46 89.1962 271.235 89.3185L267.397 91.3952C267.171 91.5175 267.171 91.7155 267.397 91.8378Z"/><path fill="#fff" d="M267.397 91.8378L270.134 93.3271C270.359 93.4494 270.724 93.4494 270.949 93.3271L274.786 91.2496C275.011 91.1273 275.011 90.9293 274.786 90.807L272.049 89.3185C271.825 89.1962 271.46 89.1962 271.235 89.3185L267.397 91.3952C267.171 91.5175 267.171 91.7155 267.397 91.8378Z" opacity=".5"/><path fill="#000" d="M270.931 94.1649L274.753 92.0974C274.977 91.9751 275.167 91.6864 275.176 91.4526C275.186 91.2388 275.041 90.9809 274.844 90.8444C275.01 90.9667 274.989 91.1389 274.786 91.2496L270.95 93.3271C270.837 93.3878 270.689 93.4195 270.542 93.4178L270.54 93.4186L270.541 94.2556C270.682 94.254 270.824 94.224 270.931 94.1649Z" opacity=".15"/><path fill="#000" d="M273.263 85.1178V90.9634L270.834 92.2838V84.5212C270.834 84.1194 271.13 83.9605 271.499 84.1593L273.263 85.1178Z"/><path fill="#37474F" d="M297.54 94.8089V104.273L295.222 105.536L293.66 104.686V96.923C293.66 96.5253 293.361 96.0369 292.995 95.8373L273.956 85.4955L271.499 84.1601C271.13 83.9613 270.834 84.1202 270.834 84.5221V92.2846L269.269 91.4343V81.9745C269.269 81.9345 269.273 81.8913 269.281 81.8513C269.331 81.4786 269.608 81.0659 269.938 80.8887L270.927 80.3496C271.292 80.1507 271.887 80.1507 272.257 80.3496L296.875 93.724C297.244 93.9262 297.54 94.4112 297.54 94.8089Z"/><path fill="#263238" d="M295.222 96.0719V105.536L293.66 104.686V96.923C293.66 96.5253 293.361 96.0369 292.995 95.8373L273.956 85.4955L271.499 84.1601C271.13 83.9613 270.834 84.1202 270.834 84.5221V92.2846L269.269 91.4343V81.9745C269.269 81.9345 269.273 81.8913 269.281 81.8513C269.338 81.5435 269.611 81.4353 269.938 81.6126L294.556 94.9869C294.921 95.1891 295.222 95.6742 295.222 96.0719Z"/></svg>