<svg width="400" height="352" viewBox="0 0 400 352" fill="none" xmlns="http://www.w3.org/2000/svg">
<g clip-path="url(#clip0_60_582)">
<path d="M316.579 325.573C291.369 316.964 279.156 292.215 273.345 268.656C272.375 264.724 270.751 260.73 271.741 256.813C272.733 252.896 276.65 249.397 280.815 250.101C284.27 250.685 286.566 253.712 289.075 256.061C292.413 259.187 296.687 261.389 301.247 262.334C304.243 262.955 307.721 262.917 309.932 260.907C312.966 258.149 312.063 253.399 310.933 249.529C308.827 242.317 306.722 235.105 304.617 227.895C303.487 224.026 302.348 220.071 302.577 216.069C302.807 212.067 304.656 207.934 308.269 205.909C311.883 203.886 317.32 204.786 319.225 208.37C320.019 209.862 320.144 211.587 320.717 213.167C321.289 214.747 322.59 216.325 324.337 216.363C326.106 216.401 327.436 214.886 328.341 213.44C331.466 208.452 332.906 202.681 334.167 196.985C335.427 191.29 336.574 185.495 339.205 180.251C341.836 175.007 346.194 170.275 351.986 168.469C357.779 166.663 365.022 168.499 368.061 173.571C371.109 178.657 369.309 185.058 366.893 190.413C363.309 198.359 358.51 205.799 352.695 212.426C351.648 213.621 350.511 214.914 350.425 216.476C350.268 219.287 353.594 221.194 356.54 221.358C359.875 221.543 363.112 220.401 366.416 219.945C369.72 219.488 373.569 219.941 375.595 222.49C378.406 226.025 376.077 231.068 373.397 234.664C368.031 241.865 361.357 248.171 353.76 253.221C351.036 255.031 348.117 256.753 346.251 259.374C344.385 261.996 343.907 265.851 346.157 268.208C348.409 270.568 352.436 270.483 355.443 269.125C358.449 267.77 360.821 265.429 363.531 263.59C368.602 260.148 375.996 258.666 380.923 262.352C384.161 264.775 385.57 268.936 385.396 272.847C385.222 276.759 383.669 280.484 381.898 284.006C375.705 296.316 366.42 307.317 354.546 314.923C342.673 322.525 330.871 326.762 316.579 325.573Z" fill="#E7EBF5"/>
<path d="M321.185 342.962C319.446 333.487 318.485 322.02 318.796 309.317C319.082 296.612 320.618 282.71 322.755 268.221C323.303 264.601 323.845 261.024 324.378 257.499C324.92 253.981 325.456 250.492 326.205 247.111C327.671 240.34 329.628 233.936 331.686 227.912C333.742 221.885 335.927 216.236 338.01 210.969C340.106 205.703 342.158 200.83 344.229 196.463C348.341 187.711 352.536 181.036 355.615 176.565C357.148 174.323 358.398 172.622 359.263 171.479C359.68 170.934 360.007 170.506 360.254 170.185C360.481 169.897 360.602 169.753 360.613 169.76C360.625 169.767 360.525 169.926 360.319 170.23C360.089 170.562 359.781 171.004 359.392 171.565C358.572 172.735 357.362 174.462 355.869 176.723C352.876 181.237 348.769 187.928 344.733 196.681C342.7 201.048 340.684 205.922 338.618 211.189C336.562 216.462 334.404 222.11 332.37 228.128C330.336 234.143 328.403 240.528 326.955 247.263C326.216 250.626 325.688 254.085 325.148 257.612C324.615 261.135 324.076 264.711 323.528 268.329C321.394 282.806 319.841 296.672 319.515 309.338C319.166 322 320.067 333.424 321.73 342.877" fill="#000080"/>
<path d="M326.413 247.029C326.364 247.05 326.057 246.496 325.541 245.477C325.02 244.461 324.317 242.968 323.48 241.11C321.799 237.399 319.665 232.198 317.334 226.456C315.002 220.711 312.796 215.554 311.06 211.877C310.198 210.037 309.484 208.553 308.977 207.534C308.475 206.511 308.22 205.934 308.268 205.909C308.316 205.885 308.662 206.417 309.247 207.403C309.839 208.384 310.631 209.838 311.56 211.657C313.431 215.291 315.729 220.438 318.061 226.189C320.346 231.861 322.412 236.992 323.991 240.912C324.716 242.68 325.328 244.168 325.82 245.363C326.248 246.415 326.463 247.008 326.413 247.029Z" fill="#E0E0E0"/>
<path d="M376.567 224.321C376.582 224.37 375.855 224.643 374.528 225.094C373.206 225.551 371.288 226.204 368.947 227.081C364.251 228.801 357.852 231.39 350.924 234.539C344.001 237.7 337.863 240.813 333.495 243.185C331.3 244.357 329.551 245.35 328.338 246.03C327.127 246.714 326.444 247.072 326.413 247.03C326.383 246.985 327.011 246.545 328.174 245.784C329.339 245.028 331.049 243.963 333.213 242.728C337.523 240.233 343.64 237.036 350.584 233.864C357.532 230.708 363.991 228.185 368.752 226.587C371.126 225.771 373.077 225.192 374.434 224.819C375.793 224.451 376.55 224.271 376.567 224.321Z" fill="#000080"/>
<path d="M319.185 308.236C319.163 308.253 318.98 308.075 318.649 307.721C318.266 307.295 317.799 306.776 317.233 306.147C316.009 304.775 314.293 302.747 312.208 300.215C308.034 295.152 302.501 287.988 296.51 280.006C290.514 272.02 285.061 264.817 281.005 259.68C279.024 257.185 277.394 255.133 276.182 253.609C275.661 252.945 275.231 252.399 274.879 251.949C274.588 251.565 274.446 251.356 274.466 251.338C274.488 251.324 274.671 251.501 275.002 251.856C275.385 252.281 275.852 252.799 276.418 253.428C277.642 254.8 279.358 256.828 281.443 259.361C285.617 264.423 291.15 271.587 297.144 279.573C303.137 287.557 308.59 294.758 312.647 299.897C314.629 302.39 316.258 304.443 317.469 305.967C317.991 306.631 318.42 307.179 318.772 307.627C319.063 308.011 319.206 308.221 319.185 308.236Z" fill="#000080"/>
<path d="M383.277 269.096C383.291 269.118 383.077 269.272 382.658 269.543C382.159 269.856 381.546 270.24 380.804 270.704C379.085 271.758 376.766 273.18 373.944 274.908C368.152 278.459 360.213 283.45 351.448 288.977C342.681 294.506 334.685 299.433 328.813 302.871C325.878 304.591 323.488 305.96 321.817 306.875C321.043 307.292 320.404 307.636 319.886 307.917C319.44 308.148 319.198 308.259 319.184 308.237C319.17 308.214 319.384 308.061 319.803 307.788C320.301 307.476 320.914 307.093 321.657 306.628C323.375 305.574 325.694 304.154 328.516 302.424C334.308 298.874 342.248 293.882 351.016 288.353C359.78 282.826 367.775 277.899 373.647 274.461C376.582 272.74 378.972 271.371 380.644 270.457C381.418 270.039 382.055 269.694 382.575 269.414C383.022 269.183 383.263 269.073 383.277 269.096Z" fill="#000080"/>
<path d="M94.316 209.141L91.7343 288.905C91.7343 297.607 96.3577 305.729 104.047 310.534C114.791 317.248 129.035 316.019 138.311 307.578L165.948 282.428L162.968 223.652L126.048 259.463L124.193 208.546L94.316 209.141Z" fill="#FFBE9D"/>
<path d="M204.649 178.894L167.955 194.718L129.118 248.775L161.511 288.8L186.318 278.527L204.649 178.894Z" fill="#79B0FA"/>
<path d="M125.598 258.982C125.733 258.982 125.841 264.943 125.841 272.297C125.841 279.652 125.732 285.613 125.598 285.613C125.464 285.613 125.356 279.652 125.356 272.297C125.356 264.943 125.464 258.982 125.598 258.982Z" fill="#EB996E"/>
<path d="M181.424 190.162L200.514 180.888L211.48 169.143L262.603 165.97L276.705 176.123L311.694 185.978L304.465 276.258L311.521 377.299L167.955 376.997V278.8L181.424 190.162Z" fill="#79B0FA"/>
<path d="M167.758 246.116C167.892 246.116 168.045 272.173 168.099 304.309C168.153 336.456 168.088 362.508 167.954 362.508C167.82 362.508 167.668 336.456 167.614 304.309C167.56 272.173 167.625 246.116 167.758 246.116Z" fill="#263238"/>
<path d="M240.916 258.997C240.915 259.013 240.665 259.015 240.189 259.005C239.665 258.989 238.974 258.966 238.109 258.938C236.25 258.856 233.652 258.743 230.465 258.603L230.296 258.596L230.3 258.434C230.422 252.747 230.587 245.064 230.769 236.603C231.011 227.871 231.231 219.97 231.391 214.189C231.492 211.359 231.575 209.052 231.635 207.398C231.672 206.633 231.703 206.018 231.726 205.552C231.752 205.13 231.773 204.909 231.79 204.909C231.807 204.909 231.818 205.131 231.823 205.554C231.823 206.021 231.823 206.635 231.823 207.401C231.801 209.056 231.771 211.365 231.732 214.196C231.609 219.977 231.439 227.88 231.252 236.613C231.018 245.073 230.806 252.756 230.649 258.441L230.483 258.273C233.666 258.474 236.261 258.638 238.118 258.755C238.981 258.819 239.671 258.871 240.194 258.911C240.668 258.951 240.917 258.98 240.916 258.997Z" fill="#263238"/>
<path d="M238.06 217.345C238.059 217.33 238.337 217.297 238.799 217.459C239.258 217.613 239.874 218.019 240.333 218.738C240.766 219.442 241.074 220.517 240.598 221.592C240.359 222.114 239.913 222.6 239.324 222.878C238.741 223.165 238.058 223.285 237.374 223.239C236.692 223.18 236.038 222.957 235.511 222.585C234.978 222.219 234.62 221.673 234.475 221.121C234.189 219.987 234.677 218.974 235.227 218.345C235.803 217.706 236.481 217.4 236.96 217.318C237.443 217.229 237.712 217.304 237.709 217.319C237.71 217.366 237.442 217.356 237.009 217.49C236.577 217.618 235.987 217.943 235.495 218.547C235.025 219.144 234.64 220.071 234.907 221.015C235.145 221.969 236.211 222.697 237.414 222.784C238.615 222.882 239.791 222.326 240.189 221.421C240.615 220.529 240.395 219.556 240.033 218.896C239.652 218.225 239.126 217.814 238.721 217.622C238.317 217.423 238.051 217.393 238.06 217.345Z" fill="#263238"/>
<path d="M237.952 234.778C237.951 234.763 238.229 234.73 238.691 234.891C239.15 235.046 239.766 235.452 240.225 236.171C240.658 236.875 240.966 237.95 240.49 239.025C240.251 239.548 239.805 240.033 239.216 240.311C238.633 240.598 237.95 240.718 237.266 240.671C236.584 240.612 235.929 240.389 235.403 240.018C234.87 239.652 234.512 239.106 234.367 238.554C234.081 237.42 234.569 236.406 235.119 235.778C235.695 235.139 236.373 234.833 236.852 234.751C237.335 234.662 237.604 234.737 237.601 234.752C237.602 234.799 237.335 234.789 236.901 234.923C236.469 235.05 235.879 235.376 235.387 235.98C234.917 236.577 234.532 237.503 234.799 238.448C235.037 239.402 236.103 240.13 237.306 240.216C238.507 240.315 239.683 239.759 240.082 238.854C240.508 237.962 240.288 236.989 239.925 236.329C239.544 235.658 239.018 235.246 238.613 235.055C238.208 234.855 237.942 234.825 237.952 234.778Z" fill="#263238"/>
<g opacity="0.3">
<path d="M190.133 263.295C203.089 279.952 213.237 298.569 227.676 314.102C242.114 329.635 262.399 342.214 284.27 341.213C291.247 340.893 303.528 338.677 308.501 334.048L306.669 316.357C270.976 307.559 237.527 290.764 209.851 267.749C204.99 263.706 199.379 259.174 192.952 259.939" fill="black"/>
</g>
<path d="M197.074 119.951C205.039 119.951 211.496 113.428 211.496 105.381C211.496 97.3335 205.039 90.8101 197.074 90.8101C189.109 90.8101 182.653 97.3335 182.653 105.381C182.653 113.428 189.109 119.951 197.074 119.951Z" fill="#79B0FA"/>
<path d="M198.215 90.8101C198.19 90.8708 198.797 91.0667 199.808 91.5701C200.809 92.0726 202.253 92.8782 203.595 94.3111C204.944 95.7264 206.099 97.7804 206.722 100.242C207.4 102.694 207.533 105.526 206.689 108.339C205.875 111.145 204.28 113.578 202.379 115.337C200.491 117.124 198.279 118.186 196.327 118.648C194.367 119.132 192.69 118.985 191.6 118.725C190.502 118.458 189.944 118.15 189.913 118.208C189.902 118.227 190.033 118.314 190.296 118.46C190.557 118.613 190.97 118.795 191.526 118.966C192.629 119.312 194.381 119.54 196.44 119.093C198.486 118.672 200.829 117.601 202.82 115.764C204.824 113.955 206.503 111.43 207.35 108.509C208.232 105.594 208.066 102.594 207.334 100.095C206.658 97.5643 205.405 95.4339 203.953 94.001C202.508 92.5488 200.977 91.7827 199.923 91.3417C199.391 91.1185 198.965 90.9814 198.671 90.9033C198.379 90.8224 198.223 90.789 198.215 90.8101Z" fill="#263238"/>
<path d="M209.583 112.933C209.67 112.94 209.797 112.665 209.746 112.196C209.701 111.737 209.434 111.084 208.835 110.601C208.233 110.119 207.509 109.973 207.02 110.003C206.522 110.031 206.254 110.191 206.274 110.271C206.298 110.446 207.447 110.329 208.39 111.092C209.338 111.851 209.396 112.939 209.583 112.933Z" fill="#263238"/>
<path d="M208.984 108.452C209.05 108.288 208.612 107.987 207.981 107.97C207.35 107.95 206.894 108.226 206.949 108.394C207.003 108.568 207.448 108.598 207.961 108.616C208.473 108.628 208.919 108.623 208.984 108.452Z" fill="#263238"/>
<path d="M208.982 96.4169C209.07 96.2597 208.211 95.8397 207.192 96.2193C206.169 96.5918 205.838 97.4492 206.016 97.5089C206.185 97.5994 206.661 97.0943 207.44 96.8219C208.209 96.5241 208.922 96.5926 208.982 96.4169Z" fill="#263238"/>
<path d="M234.797 203.355C220.582 202.284 209.843 190.743 210.552 177.304C211.049 167.873 211.565 159.368 211.565 159.368C211.565 159.368 190.137 156.224 189.873 136.008C189.608 115.792 193.322 69.3704 193.322 69.3704C218.123 59.3129 246.748 62.7085 268.139 78.2453L271.314 80.5515L263.198 180.445C262.082 194.183 249.352 204.452 234.797 203.355Z" fill="#FFBE9D"/>
<path d="M211.529 159.077C211.529 159.077 225.069 160.116 239.459 151.586C239.459 151.586 232.857 166.136 211.479 164.314L211.529 159.077Z" fill="#EB996E"/>
<path d="M227.479 123.579C226.943 123.549 226.937 126.921 223.877 129.315C220.825 131.716 217.015 131.337 216.987 131.809C216.938 132.02 217.835 132.463 219.443 132.504C221.02 132.555 223.323 132.077 225.195 130.613C227.061 129.145 227.863 127.187 227.985 125.803C228.122 124.394 227.723 123.558 227.479 123.579Z" fill="#263238"/>
<path d="M228.888 86.2145C229.213 87.0597 232.501 86.6591 236.362 87.0983C240.235 87.4638 243.35 88.5312 243.862 87.7739C244.09 87.4111 243.548 86.6169 242.288 85.799C241.04 84.9828 239.048 84.2062 236.73 83.9628C234.411 83.7239 232.288 84.0709 230.881 84.6112C229.463 85.1497 228.748 85.8139 228.888 86.2145Z" fill="#263238"/>
<path d="M196.873 93.1778C197.458 93.9412 200.111 93.4528 203.214 93.7084C206.325 93.8736 208.889 94.7143 209.57 94.0361C209.873 93.704 209.533 92.9625 208.456 92.1903C207.395 91.4225 205.562 90.7047 203.426 90.5589C201.292 90.4165 199.378 90.8804 198.225 91.4989C197.055 92.1183 196.619 92.8079 196.873 93.1778Z" fill="#263238"/>
<path d="M268.674 101.492C269.039 101.343 283.394 97.3842 282.926 111.205C282.457 125.026 267.85 121.732 267.838 121.335C267.825 120.938 268.674 101.492 268.674 101.492Z" fill="#FFBE9D"/>
<path d="M272.49 116.233C272.556 116.191 272.739 116.409 273.164 116.609C273.578 116.803 274.297 116.95 275.07 116.703C276.635 116.214 278.016 113.936 278.172 111.446C278.252 110.189 278.013 108.983 277.574 107.977C277.162 106.952 276.492 106.225 275.718 106.07C274.949 105.878 274.382 106.301 274.189 106.685C273.98 107.066 274.063 107.345 273.985 107.365C273.942 107.399 273.679 107.125 273.816 106.557C273.886 106.285 274.068 105.963 274.421 105.708C274.782 105.449 275.303 105.327 275.844 105.399C276.971 105.506 277.955 106.518 278.437 107.622C278.982 108.733 279.281 110.09 279.191 111.5C279.003 114.283 277.404 116.844 275.267 117.358C274.228 117.58 273.379 117.261 272.946 116.921C272.504 116.568 272.438 116.257 272.49 116.233Z" fill="#EB996E"/>
<path d="M185.121 51.906C188.232 46.1068 194.289 41.7967 201.054 40.5694C207.818 39.3421 215.139 41.2248 220.307 45.5208C223.546 39.4343 230.115 35.0346 237.274 34.1587C237.722 34.1043 238.17 34.063 238.62 34.0357C248.13 33.4577 256.51 39.9579 258.445 48.7617L259.499 53.555C259.499 53.555 277.61 59.3727 281.797 62.5433C286.408 66.0337 288.705 72.042 287.519 77.5056C286.334 82.9701 281.719 87.6421 276.026 89.1427C280.62 96.9616 276.314 108.179 267.477 111.406L265.342 110.57C257.237 102.174 255.384 88.9239 260.906 78.8322C260.644 78.8445 260.395 78.8058 260.138 78.7997C257.317 80.2519 254.072 80.9802 250.861 80.8027C245.739 80.5199 240.812 77.9414 237.846 73.9906C231.997 77.9721 223.615 78.3051 217.433 74.8015C216.458 74.2489 215.487 73.5944 214.357 73.481C213.01 73.3457 211.737 74.002 210.522 74.5651C207.308 76.0534 203.696 77.0259 200.152 76.541C196.847 76.0885 193.672 74.1496 192.365 71.2829C192.284 71.2715 192.203 71.2706 192.122 71.2557C187.993 70.5511 184.681 67.2268 183.544 63.4148C182.406 59.6046 183.225 55.4386 185.121 51.906Z" fill="#263238"/>
<path d="M279.513 100.855C279.513 100.855 288.521 59.9745 263.505 53.555H259.498C259.498 53.555 277.382 66.6829 271.314 99.6148" fill="#79B0FA"/>
<path d="M272.475 127.507C280.44 127.507 286.897 120.984 286.897 112.937C286.897 104.89 280.44 98.3664 272.475 98.3664C264.51 98.3664 258.054 104.89 258.054 112.937C258.054 120.984 264.51 127.507 272.475 127.507Z" fill="#79B0FA"/>
<path d="M271.334 98.3664C271.326 98.3453 271.17 98.3787 270.877 98.4613C270.583 98.5395 270.157 98.6756 269.625 98.8988C268.572 99.3398 267.041 100.106 265.596 101.558C264.142 102.99 262.889 105.121 262.214 107.652C261.483 110.15 261.318 113.15 262.198 116.065C263.046 118.986 264.724 121.511 266.729 123.32C268.72 125.157 271.063 126.227 273.108 126.649C275.167 127.096 276.919 126.868 278.021 126.523C278.577 126.35 278.99 126.169 279.251 126.016C279.516 125.869 279.647 125.784 279.635 125.764C279.604 125.706 279.046 126.015 277.948 126.281C276.857 126.542 275.181 126.689 273.22 126.205C271.268 125.742 269.055 124.68 267.167 122.893C265.266 121.134 263.671 118.701 262.858 115.895C262.014 113.083 262.146 110.25 262.824 107.798C263.448 105.336 264.601 103.283 265.951 101.867C267.292 100.434 268.738 99.6288 269.739 99.1263C270.751 98.6229 271.358 98.427 271.334 98.3664Z" fill="#263238"/>
<path d="M259.965 120.49C260.152 120.495 260.211 119.406 261.158 118.648C262.102 117.885 263.25 118.003 263.274 117.828C263.295 117.748 263.027 117.587 262.528 117.56C262.04 117.529 261.315 117.675 260.713 118.157C260.114 118.64 259.847 119.293 259.802 119.753C259.753 120.222 259.878 120.497 259.965 120.49Z" fill="#263238"/>
<path d="M260.564 116.008C260.629 116.18 261.076 116.184 261.588 116.173C262.1 116.154 262.546 116.124 262.599 115.95C262.655 115.782 262.198 115.507 261.567 115.526C260.936 115.543 260.498 115.844 260.564 116.008Z" fill="#263238"/>
<path d="M260.566 103.974C260.626 104.149 261.339 104.081 262.107 104.378C262.886 104.651 263.362 105.156 263.532 105.065C263.709 105.005 263.378 104.148 262.356 103.776C261.337 103.397 260.479 103.816 260.566 103.974Z" fill="#263238"/>
<path d="M243.863 38.3625C243.864 38.4697 245.63 38.4354 248.448 38.5699C249.853 38.6551 251.528 38.8097 253.304 39.2744C255.073 39.7251 256.932 40.5799 258.479 41.9241C260.029 43.2639 260.984 45.0165 261.152 46.7156C261.348 48.4173 260.902 49.9688 260.406 51.1882C259.35 53.6376 258.185 54.9299 258.302 55.0011C258.335 55.0248 258.649 54.7296 259.131 54.1261C259.609 53.5225 260.265 52.6106 260.853 51.3639C261.424 50.1252 261.954 48.5052 261.779 46.6568C261.637 44.8101 260.599 42.8738 258.944 41.4515C257.297 40.0194 255.321 39.1383 253.467 38.6999C251.612 38.2492 249.892 38.1411 248.466 38.1139C247.036 38.0946 245.885 38.1534 245.092 38.2079C244.298 38.2632 243.861 38.3186 243.863 38.3625Z" fill="#263238"/>
<path d="M261.767 37.6228C261.67 37.6852 262.332 38.5382 262.951 40.0941C263.574 41.6324 264.064 43.9482 263.593 46.4275C263.117 48.9067 261.8 50.9159 260.647 52.1511C259.492 53.4057 258.556 53.9864 258.623 54.0769C258.656 54.1366 259.704 53.6859 261.002 52.4621C262.292 51.2603 263.763 49.1755 264.267 46.5417C264.768 43.9087 264.163 41.4708 263.398 39.9193C262.636 38.3449 261.82 37.578 261.767 37.6228Z" fill="#263238"/>
<path d="M198.349 54.7261C198.327 54.7314 198.358 54.8948 198.436 55.204C198.511 55.5141 198.66 55.9639 198.909 56.5245C199.4 57.6393 200.338 59.2259 202.068 60.7291C203.771 62.2191 206.355 63.6125 209.527 63.8532C212.653 64.1185 216.298 63.2813 219.163 61.012L218.662 60.9487C219.27 61.7702 220.005 62.5767 220.841 63.3041C223.859 65.9204 227.776 67.1881 231.299 67.167C234.863 67.1828 237.904 65.8729 240.025 64.4093C242.176 62.9254 243.465 61.2501 244.19 60.0465C244.548 59.4386 244.793 58.9492 244.922 58.6048C245.06 58.2631 245.121 58.0812 245.099 58.0724C245.038 58.047 244.739 58.7621 243.962 59.9165C243.182 61.0586 241.865 62.6461 239.744 64.0377C237.651 65.4108 234.705 66.6206 231.302 66.5722C227.932 66.5617 224.186 65.3274 221.305 62.8288C220.507 62.1348 219.805 61.3669 219.224 60.5868L219.008 60.2969L218.723 60.5235C216.026 62.6733 212.56 63.5026 209.577 63.283C206.554 63.0897 204.063 61.808 202.373 60.4084C200.662 58.9993 199.687 57.4926 199.136 56.4287C198.587 55.3534 198.406 54.7103 198.349 54.7261Z" fill="#455A64"/>
<path d="M196.901 68.9329C196.843 68.9794 197.417 69.7306 198.708 70.5687C199.98 71.4042 202.048 72.2564 204.466 72.3179C206.886 72.3785 209 71.6317 210.317 70.8613C211.654 70.0899 212.268 69.3686 212.213 69.3194C212.14 69.2386 211.419 69.8255 210.082 70.4615C208.759 71.1002 206.751 71.7284 204.484 71.6721C202.218 71.6142 200.249 70.8859 198.963 70.1813C197.665 69.4784 196.979 68.8556 196.901 68.9329Z" fill="#455A64"/>
<path d="M197.089 102.413C197.469 102.79 199.791 101.169 203.089 101.177C206.384 101.141 208.804 102.741 209.163 102.36C209.339 102.192 208.951 101.511 207.897 100.787C206.86 100.065 205.09 99.3644 203.035 99.3732C200.981 99.3837 199.253 100.098 198.26 100.828C197.245 101.562 196.902 102.244 197.089 102.413Z" fill="#263238"/>
<path d="M232.484 102.228C232.427 103.755 233.75 105.061 235.439 105.146C237.125 105.231 238.541 104.066 238.598 102.539C238.655 101.012 237.332 99.7044 235.646 99.6183C233.957 99.5331 232.541 100.702 232.484 102.228Z" fill="#263238"/>
<path d="M229.507 98.8267C229.888 99.2036 232.213 97.5827 235.509 97.5907C238.803 97.5546 241.223 99.1553 241.582 98.774C241.757 98.6054 241.374 97.9254 240.316 97.2015C239.278 96.4802 237.509 95.7791 235.455 95.787C233.4 95.7976 231.672 96.5109 230.679 97.2419C229.667 97.9763 229.322 98.6581 229.507 98.8267Z" fill="#263238"/>
<path d="M217.538 121.907C217.553 121.729 215.504 121.396 212.181 120.995C211.339 120.913 210.542 120.755 210.4 120.212C210.201 119.637 210.554 118.781 210.962 117.857C211.754 115.934 212.583 113.918 213.453 111.805C216.911 103.19 219.415 96.1051 219.046 95.9768C218.678 95.8485 215.575 102.727 212.116 111.344C211.283 113.468 210.487 115.493 209.73 117.431C209.411 118.335 208.863 119.359 209.293 120.55C209.519 121.144 210.137 121.576 210.677 121.713C211.217 121.868 211.691 121.877 212.107 121.901C215.452 122.069 217.526 122.084 217.538 121.907Z" fill="#263238"/>
<path d="M210.971 169.601L230.586 196.114L232.366 203.064L235.541 196.114L265.912 168.353V194.985L243.231 207.853L230.586 209.141L211.48 202.378L205.97 191.561L210.971 169.601Z" fill="#79B0FA"/>
<path d="M229.799 196.129C229.8 196.174 229.281 196.148 228.363 196.319C227.454 196.503 226.146 196.955 224.785 197.933C222.035 199.858 219.193 203.74 217.161 208.622L216.979 209.058L216.738 208.653C215.648 206.824 214.478 204.858 213.267 202.827C209.725 196.81 206.52 191.366 204.161 187.358C203.04 185.41 202.122 183.814 201.45 182.645C201.159 182.121 200.923 181.693 200.734 181.353C200.575 181.055 200.498 180.894 200.513 180.887C200.528 180.879 200.633 181.024 200.82 181.308C201.029 181.637 201.292 182.051 201.615 182.559C202.32 183.709 203.284 185.282 204.46 187.201C206.851 191.191 210.099 196.612 213.69 202.604C214.895 204.637 216.061 206.606 217.145 208.438L216.723 208.47C218.815 203.519 221.738 199.627 224.611 197.708C226.031 196.736 227.397 196.311 228.334 196.17C228.809 196.115 229.174 196.084 229.424 196.102C229.671 196.107 229.8 196.116 229.799 196.129Z" fill="#263238"/>
<path d="M274.707 176.156C274.721 176.165 274.606 176.346 274.376 176.682C274.115 177.054 273.774 177.539 273.349 178.141C272.442 179.397 271.102 181.198 269.387 183.383C265.955 187.749 260.975 193.628 254.989 199.711C251.089 203.684 247.244 207.246 243.895 210.184L243.664 210.387L243.554 210.109C241.871 205.842 239.986 202.468 238.571 200.168C237.862 199.017 237.274 198.13 236.872 197.524C236.467 196.92 236.254 196.595 236.273 196.583C236.282 196.577 236.348 196.65 236.468 196.796C236.606 196.975 236.775 197.192 236.98 197.455C237.417 198.04 238.041 198.91 238.783 200.048C240.265 202.322 242.215 205.687 243.948 209.968L243.607 209.893C246.921 206.931 250.741 203.364 254.632 199.398C260.605 193.329 265.615 187.497 269.112 183.187C270.859 181.03 272.241 179.261 273.194 178.037C273.648 177.456 274.014 176.988 274.294 176.629C274.551 176.311 274.693 176.147 274.707 176.156Z" fill="#263238"/>
<g opacity="0.3">
<path d="M231.803 213.639C233.373 211.827 233.165 208.585 235.507 207.784C236.675 207.385 237.969 207.812 238.816 208.67C240.985 210.867 240.365 214.1 242.334 216.407C242.701 216.837 243.166 217.2 243.702 217.421C245.939 218.346 247.814 216.715 249.273 215.225C252.036 212.405 254.77 209.56 257.472 206.688C260.928 203.016 264.354 199.277 267.001 195.048C269.648 190.82 271.499 186.041 271.537 181.13C263.045 191.357 253.954 201.315 243.751 210.039C242.566 206.013 239.982 201.981 237.618 198.489C237.282 197.993 236.122 196.329 235.541 196.114C235.242 196.003 235.835 195.99 235.541 196.114L232.366 203.064C232.366 203.064 230.942 197.411 230.586 196.114C229.355 196.033 228.101 196.216 226.823 196.675C226.823 196.675 225.534 197.21 224.212 198.17C220.613 200.784 218.286 203.993 217.405 208.196C219.368 207.768 220.799 206.24 222.317 204.99C223.835 203.74 225.914 202.662 227.788 203.359C229.716 204.076 230.436 206.3 230.548 208.253C230.662 210.206 230.449 212.289 231.461 213.996" fill="black"/>
</g>
<path d="M271.052 87.3628L271.314 96.0436L281.668 97.2744L282.008 88.2062L271.052 87.3628Z" fill="#455A64"/>
<path d="M278.437 45.2485C278.571 45.2485 278.679 56.846 278.679 71.1494C278.679 85.4572 278.57 97.053 278.437 97.053C278.303 97.053 278.195 85.4581 278.195 71.1494C278.195 56.846 278.303 45.2485 278.437 45.2485Z" fill="#455A64"/>
<path d="M276.078 246.801C276.078 246.801 276.057 246.638 276.04 246.321C276.024 245.986 276.003 245.517 275.975 244.912C275.927 243.654 275.859 241.832 275.773 239.493C275.617 234.768 275.394 227.963 275.118 219.562C274.859 211.141 274.552 201.123 274.21 190C274.106 187.227 274.088 184.349 273.909 181.474C273.765 180.077 273.332 178.573 272.106 177.739C271.515 177.321 270.774 177.063 270.048 177.093C269.326 177.118 268.627 177.497 268.311 178.108C267.683 179.344 268.4 181.118 269.776 181.65C271.209 182.187 272.927 181.615 274.024 180.561C275.148 179.499 275.649 177.942 275.784 176.408C275.897 174.863 275.84 173.244 275.411 171.74C275.147 170.864 274.716 170.024 274.055 169.393C273.4 168.758 272.528 168.311 271.617 168.209C270.7 168.099 269.776 168.416 269.231 169.106C268.691 169.767 268.441 170.72 268.836 171.445C269.21 172.188 270.163 172.521 271.036 172.394C271.922 172.283 272.741 171.824 273.237 171.12C274.258 169.7 274.319 167.829 274.263 166.137C274.208 165.282 274.048 164.434 273.687 163.677C273.323 162.932 272.762 162.245 271.983 161.937C271.213 161.618 270.297 161.576 269.529 161.857C268.756 162.119 268.211 162.835 268.277 163.583C268.303 163.946 268.473 164.293 268.731 164.58C269.003 164.859 269.344 165.08 269.711 165.249C270.457 165.565 271.318 165.666 272.086 165.459C272.846 165.263 273.465 164.694 273.903 164.062C274.351 163.425 274.604 162.681 274.766 161.933C275.06 160.426 275.012 158.865 274.832 157.389C274.638 155.944 274.023 154.447 272.69 153.809C272.049 153.485 271.292 153.351 270.61 153.497C269.937 153.636 269.339 154.11 269.182 154.721C269.006 155.332 269.25 155.999 269.642 156.519C270.035 157.047 270.614 157.443 271.238 157.636C271.87 157.838 272.539 157.711 273.113 157.419C273.691 157.132 274.135 156.654 274.457 156.132C275.1 155.072 275.232 153.792 274.944 152.677C274.639 151.548 273.972 150.561 273.207 149.727C272.438 148.888 271.573 148.178 270.722 147.516L270.663 147.47L270.668 147.4C271.078 141.29 271.402 136.454 271.625 133.126C271.744 131.487 271.835 130.22 271.899 129.344C271.933 128.927 271.96 128.606 271.98 128.371C272 128.153 272.021 128.042 272.021 128.042C272.021 128.042 272.027 128.154 272.021 128.373C272.01 128.609 271.997 128.93 271.98 129.347C271.934 130.225 271.868 131.493 271.782 133.134C271.591 136.464 271.313 141.301 270.961 147.415L270.907 147.299C271.768 147.961 272.65 148.674 273.444 149.53C274.235 150.383 274.939 151.402 275.269 152.597C275.583 153.794 275.452 155.145 274.765 156.296C274.42 156.863 273.935 157.393 273.288 157.718C272.664 158.047 271.853 158.202 271.129 157.971C270.412 157.754 269.774 157.315 269.331 156.728C268.894 156.151 268.594 155.391 268.804 154.627C269.001 153.863 269.728 153.297 270.52 153.131C271.32 152.959 272.161 153.112 272.878 153.47C273.609 153.818 274.191 154.434 274.556 155.121C274.935 155.81 275.133 156.571 275.247 157.334C275.437 158.861 275.492 160.424 275.19 162.01C275.022 162.795 274.757 163.589 274.27 164.287C274.034 164.639 273.741 164.962 273.401 165.236C273.077 165.524 272.644 165.741 272.207 165.862C271.314 166.101 270.361 165.986 269.52 165.634C269.105 165.443 268.713 165.194 268.389 164.861C268.077 164.52 267.854 164.08 267.82 163.612C267.728 162.663 268.441 161.76 269.357 161.453C270.263 161.124 271.281 161.174 272.17 161.537C273.085 161.904 273.716 162.686 274.111 163.495C274.507 164.321 274.672 165.22 274.731 166.11C274.782 167.004 274.75 167.894 274.618 168.793C274.478 169.685 274.204 170.602 273.625 171.38C273.066 172.176 272.11 172.721 271.095 172.843C270.097 172.996 268.886 172.604 268.402 171.647C267.906 170.702 268.224 169.597 268.848 168.826C269.17 168.434 269.602 168.112 270.106 167.93C270.607 167.752 271.145 167.695 271.667 167.755C272.714 167.873 273.673 168.373 274.398 169.073C275.136 169.779 275.593 170.686 275.874 171.614C276.327 173.216 276.379 174.84 276.263 176.448C276.119 178.042 275.606 179.702 274.362 180.883C273.166 182.027 271.273 182.689 269.595 182.07C268.763 181.742 268.146 181.066 267.846 180.305C267.53 179.551 267.497 178.667 267.884 177.907C268.28 177.139 269.161 176.673 270.023 176.647C270.89 176.615 271.719 176.915 272.384 177.383C273.063 177.846 273.552 178.526 273.845 179.234C274.146 179.946 274.289 180.695 274.367 181.43C274.545 184.37 274.555 187.2 274.655 189.989C274.957 201.112 275.23 211.132 275.459 219.553C275.67 227.956 275.841 234.762 275.959 239.488C276.007 241.827 276.045 243.65 276.071 244.909C276.078 245.515 276.084 245.983 276.087 246.319C276.09 246.637 276.078 246.801 276.078 246.801Z" fill="#455A64"/>
<path d="M270.619 127.384V132.508H273.314L273.709 127.507L270.619 127.384Z" fill="#79B0FA"/>
<path d="M136.096 122.642C136.005 122.639 136.155 121.261 136.025 119.063C135.936 117.972 135.755 116.657 135.151 115.341C134.564 114.026 133.463 112.767 131.919 111.981C130.387 111.181 128.701 110.853 127.182 110.783C125.651 110.721 124.266 110.884 123.113 111.058C120.808 111.434 119.389 111.766 119.372 111.69C119.364 111.66 119.709 111.547 120.341 111.372C120.974 111.201 121.893 110.96 123.053 110.74C124.211 110.523 125.619 110.322 127.2 110.362C128.775 110.412 130.535 110.736 132.156 111.581C133.789 112.41 134.972 113.783 135.562 115.176C136.175 116.573 136.32 117.931 136.368 119.045C136.401 120.165 136.328 121.066 136.261 121.685C136.194 122.306 136.127 122.645 136.096 122.642Z" fill="#263238"/>
<path d="M172.034 143.098L152.432 143.749L94.3159 160.2L137.07 178.398L144.262 199.836L166.736 191.6L187.233 182.803L187.676 161.587C187.365 156.075 184.345 151.014 179.51 147.905L172.034 143.098Z" fill="#455A64"/>
<path d="M113.906 110.233L118.911 109.811C120.018 109.718 120.995 110.489 121.094 111.534C121.193 112.578 120.375 113.501 119.268 113.594L114.945 113.959L113.906 110.233Z" fill="#455A64"/>
<path d="M77.8414 119.075C78.0714 117.591 77.8117 122.045 77.8256 123.419C77.8526 126.024 80.1523 128.096 82.9109 128L89.3284 127.776L94.3159 123.514L84.6379 123.55V118.777L77.8414 119.075Z" fill="#455A64"/>
<path d="M120.041 157.686C120.041 157.686 125.004 153.689 126.987 153.48C128.971 153.272 141.724 153.363 141.724 153.363L150.098 158.77L170.375 193.917L178.309 203.483L156.27 228.023L141.724 216.585L124.574 211.299L137.668 211.471C140.313 207.519 145.005 201.493 145.005 201.493L148.238 183.933L148.388 176.955L144.108 165.969L137.537 159.392L120.041 157.686Z" fill="#FFBE9D"/>
<path d="M97.096 158.743L103.18 150.705L126.605 143.098C126.605 143.098 130.255 147.26 124.779 150.92H122.954C122.954 150.92 125.576 156.413 118.166 154.868C117.478 154.724 110.633 155.873 110.633 155.873L106.983 158.744L97.096 158.743Z" fill="#FFBE9D"/>
<path d="M73.4675 158.762L66.388 165.153L67.1319 201.77L73.4778 208.383L137.564 212.043L145.912 201.82L144.258 169.682L142.057 164.419L135.902 160.457L73.4675 158.762Z" fill="#455A64"/>
<path d="M132.592 163.047C132.592 163.047 132.729 163.149 132.988 163.368C133.26 163.602 133.641 163.93 134.14 164.358C135.167 165.254 136.665 166.559 138.605 168.249L138.634 168.274V168.312C138.655 175.882 138.693 188.813 138.741 205.281V205.349L138.693 205.402C137.62 206.598 136.436 207.92 135.228 209.267L135.163 209.34L135.061 209.336C118.051 208.622 97.7486 207.77 75.9933 206.858C75.5138 206.838 75.0344 206.817 74.5586 206.797L74.4543 206.792L74.3864 206.718C72.5476 204.707 70.7275 202.715 68.9324 200.751L68.8747 200.688L68.8738 200.605C68.7043 188.677 68.5442 177.349 68.398 167.029L68.3971 166.94L68.4632 166.878C70.5142 164.947 72.4955 163.081 74.4208 161.269L74.486 161.207L74.5707 161.21C91.9297 161.733 106.442 162.17 116.634 162.477C121.698 162.646 125.689 162.779 128.431 162.87C129.778 162.921 130.815 162.961 131.535 162.988C131.873 163.004 132.135 163.016 132.329 163.026C132.506 163.034 132.595 163.042 132.592 163.047C132.59 163.052 132.497 163.054 132.316 163.054C132.119 163.052 131.854 163.049 131.51 163.046C130.784 163.032 129.74 163.012 128.384 162.985C125.636 162.919 121.638 162.824 116.563 162.702C106.389 162.438 91.8999 162.06 74.5707 161.609L74.7206 161.551C72.7999 163.367 70.8234 165.236 68.776 167.172L68.8412 167.022C68.9995 177.342 69.1736 188.669 69.357 200.598L69.2983 200.452C71.0943 202.416 72.9154 204.407 74.7541 206.417L74.5819 206.338C75.0586 206.358 75.5371 206.379 76.0175 206.399C97.7709 207.337 118.073 208.213 135.082 208.947L134.916 209.015C136.128 207.671 137.316 206.353 138.393 205.159L138.347 205.28C138.394 188.812 138.433 175.881 138.454 168.311L138.483 168.373C136.578 166.663 135.107 165.341 134.099 164.436C133.611 163.991 133.236 163.651 132.971 163.409C132.717 163.176 132.592 163.047 132.592 163.047Z" fill="#263238"/>
<path d="M71.5952 165.386L73.4545 202.355L137.056 205.748L136.064 167.025L71.5952 165.386Z" fill="#263238"/>
<path d="M91.3078 169.247L92.4232 193.347L134.329 194.985V170.066L91.3078 169.247Z" fill="#455A64"/>
<path d="M134.6 182.571C135.86 175.204 130.553 168.268 122.746 167.078C114.939 165.889 107.588 170.897 106.328 178.264C105.067 185.63 110.374 192.567 118.181 193.756C125.988 194.946 133.339 189.938 134.6 182.571Z" fill="#263238"/>
<path d="M134.329 187.365C131.729 190.775 127.487 192.995 122.696 192.995C114.788 192.995 108.377 186.945 108.377 179.483C108.377 175.517 110.188 171.949 113.073 169.478L132.9 170.04C133.509 170.598 133.833 170.952 134.331 171.604L134.329 187.365Z" fill="#FAFAFA"/>
<path d="M73.461 202.378C73.4005 202.265 77.5966 200.152 82.8327 197.658C88.0697 195.164 92.3626 193.234 92.4232 193.346C92.4837 193.459 88.2885 195.572 83.0505 198.066C77.8154 200.56 73.5215 202.49 73.461 202.378Z" fill="#455A64"/>
<path d="M120.469 121.923L167.955 122.149V136.634V146.579L161.223 145.439L152.365 144.436V138.418L152.292 134.48L137.624 134.934L137.746 142.626L143.572 151.059L143.626 152.3L129.119 151.569L123.666 142.626C123.666 142.626 123.547 139.095 123.666 138.761L120.249 140.058C118.449 140.742 116.527 141.092 114.587 141.092H97.096C92.8058 141.092 89.2949 137.779 89.2949 133.731V128.416C89.2949 124.946 93.208 121.976 96.8856 121.95L120.469 121.923Z" fill="#455A64"/>
<path d="M113.017 141.092H98.4767C93.1307 141.092 88.7968 137.003 88.7968 131.958V131.057C88.7968 126.012 93.1307 121.923 98.4767 121.923H113.017C118.363 121.923 122.697 126.012 122.697 131.057V131.958C122.696 137.003 118.363 141.092 113.017 141.092Z" fill="#263238"/>
<path d="M113.015 133.38H96.5597C95.3205 133.38 94.3159 132.432 94.3159 131.263V131.125C94.3159 129.956 95.3205 129.008 96.5597 129.008H113.015C114.254 129.008 115.258 129.956 115.258 131.125V131.263C115.258 132.432 114.254 133.38 113.015 133.38Z" fill="#455A64"/>
<path d="M126.402 121.949C126.413 121.924 126.726 122.021 127.261 122.27C127.792 122.522 128.539 122.958 129.296 123.686C130.045 124.414 130.758 125.474 131.153 126.769C131.552 128.069 131.729 129.524 131.6 131.094C131.367 132.673 130.497 133.996 129.559 134.989C128.61 135.989 127.596 136.728 126.712 137.282C125.824 137.835 125.059 138.208 124.525 138.449C123.986 138.681 123.679 138.788 123.665 138.761C123.626 138.69 124.813 138.162 126.516 137.017C127.361 136.439 128.327 135.69 129.222 134.713C130.107 133.742 130.905 132.488 131.119 131.036C131.24 129.583 131.083 128.114 130.724 126.887C130.369 125.644 129.728 124.63 129.045 123.905C127.635 122.467 126.337 122.044 126.402 121.949Z" fill="#263238"/>
<path d="M72.1129 111.428L110.274 108.111C112.986 107.876 115.397 109.738 115.688 112.294C115.981 114.874 114.004 117.191 111.271 117.472L73.7505 121.326L72.1129 111.428Z" fill="#455A64"/>
<path d="M207.427 100.921H155.272V133.469H207.427V100.921Z" fill="#455A64"/>
<path d="M207.426 133.469C207.426 133.469 207.412 133.257 207.406 132.866C207.401 132.455 207.394 131.881 207.384 131.139C207.373 129.612 207.356 127.404 207.335 124.584C207.311 118.921 207.275 110.81 207.233 100.921L207.426 101.103C193.081 101.116 174.944 101.132 155.276 101.15C155.219 101.198 155.73 100.717 155.514 100.926V100.934V100.951V100.985V101.053V101.188V101.46V102.002V103.082C155.514 103.802 155.514 104.519 155.514 105.234C155.514 106.663 155.513 108.083 155.513 109.492C155.512 112.31 155.51 115.084 155.509 117.807C155.505 123.254 155.499 128.495 155.495 133.469L155.272 133.259C170.585 133.301 183.591 133.337 192.793 133.363C197.387 133.387 201.03 133.406 203.548 133.419C204.786 133.43 205.746 133.438 206.42 133.445C206.734 133.45 206.978 133.454 207.166 133.457C207.334 133.461 207.422 133.466 207.426 133.469C207.43 133.473 207.351 133.477 207.191 133.481C207.01 133.484 206.774 133.488 206.47 133.494C205.807 133.5 204.861 133.508 203.643 133.519C201.137 133.532 197.511 133.552 192.939 133.575C183.7 133.601 170.643 133.637 155.271 133.679L155.049 133.68V133.469C155.044 128.496 155.039 123.254 155.034 117.807C155.033 115.084 155.031 112.31 155.03 109.492C155.03 108.083 155.029 106.663 155.029 105.234C155.029 104.519 155.029 103.802 155.029 103.082V102.002V101.46V101.188V101.053V100.985V100.951V100.934V100.926C154.812 101.127 155.324 100.642 155.276 100.692C174.944 100.709 193.082 100.725 207.426 100.738H207.62L207.619 100.92C207.576 110.857 207.542 119.008 207.517 124.696C207.496 127.499 207.48 129.694 207.468 131.21C207.459 131.937 207.451 132.501 207.447 132.902C207.44 133.284 207.426 133.469 207.426 133.469Z" fill="#263238"/>
<path d="M95.0841 119.155C95.0934 119.216 94.1158 119.408 92.5219 119.621C90.928 119.837 88.7205 120.073 86.2803 120.302C83.922 120.508 81.789 120.695 80.0285 120.849C78.428 120.979 77.4374 121.058 77.4281 120.993C77.4188 120.932 78.3954 120.74 79.9894 120.527C81.5833 120.311 83.7907 120.075 86.2328 119.847C88.5902 119.64 90.7231 119.454 92.4837 119.299C94.0832 119.169 95.0738 119.091 95.0841 119.155Z" fill="#263238"/>
<path d="M84.6286 123.5C84.677 123.471 84.9293 123.717 85.095 124.237C85.2626 124.745 85.2943 125.549 84.8884 126.31C84.4787 127.069 83.7721 127.52 83.2386 127.693C82.6967 127.874 82.3364 127.828 82.3327 127.773C82.3225 127.703 82.6492 127.631 83.098 127.398C83.543 127.17 84.1109 126.742 84.4554 126.103C84.7971 125.464 84.8278 124.779 84.7589 124.305C84.6956 123.825 84.5625 123.534 84.6286 123.5Z" fill="#263238"/>
<path d="M114.438 115.943C114.384 115.893 114.668 115.58 114.937 114.982C115.202 114.39 115.479 113.507 115.466 112.531C115.477 111.544 115.083 110.728 114.69 110.196C114.297 109.66 114.002 109.34 114.057 109.292C114.099 109.253 114.473 109.483 114.961 109.999C115.452 110.501 115.969 111.442 115.951 112.524C115.964 113.601 115.609 114.529 115.244 115.128C114.871 115.734 114.474 115.986 114.438 115.943Z" fill="#263238"/>
<path d="M37.4945 111.394L64.9821 109.001C69.6363 108.596 73.838 111.635 74.6331 115.98C75.5055 120.746 71.9704 125.23 66.8824 125.812L39.4776 128.943C34.3728 129.526 29.727 126.111 29.0762 121.299C28.4068 116.345 32.224 111.854 37.4945 111.394Z" fill="#263238"/>
<path d="M42.2903 127.489C42.2223 127.426 43.0724 126.799 43.8851 125.421C44.7082 124.066 45.3431 121.884 45.0834 119.497C44.751 117.142 43.2856 115.268 42.0668 114.249C40.8165 113.191 39.7337 113.024 39.7663 112.936C39.77 112.914 40.0409 112.924 40.5018 113.062C40.9673 113.19 41.6051 113.492 42.2866 114C42.9699 114.504 43.6747 115.233 44.2836 116.151C44.8878 117.065 45.4092 118.183 45.5647 119.449C45.8375 121.944 45.115 124.216 44.1803 125.584C43.7222 126.277 43.2474 126.769 42.8917 127.073C42.5314 127.374 42.3089 127.51 42.2903 127.489Z" fill="#455A64"/>
<path d="M124.193 142.626C124.193 142.601 124.547 142.576 125.203 142.553C125.936 142.536 126.876 142.515 128.016 142.49C130.508 142.469 133.866 142.441 137.746 142.408L137.869 142.407L137.939 142.507C138.935 143.943 140.014 145.499 141.134 147.114C142.049 148.442 142.935 149.73 143.767 150.939L144.006 151.285L143.571 151.281C139.434 151.25 135.827 151.222 133.149 151.201C131.916 151.174 130.901 151.152 130.111 151.136C129.402 151.112 129.016 151.086 129.016 151.059C129.016 151.033 129.402 151.007 130.111 150.984C130.901 150.967 131.916 150.945 133.149 150.919C135.826 150.898 139.434 150.87 143.571 150.839L143.374 151.181C142.538 149.975 141.647 148.69 140.729 147.364C139.615 145.745 138.542 144.185 137.553 142.746L137.746 142.846C133.867 142.813 130.508 142.785 128.017 142.764C126.877 142.739 125.938 142.717 125.204 142.701C124.547 142.676 124.193 142.652 124.193 142.626Z" fill="#263238"/>
<path d="M167.884 143.964C167.884 144.091 164.517 144.192 160.366 144.192C156.212 144.192 152.847 144.09 152.847 143.964C152.847 143.838 156.212 143.736 160.366 143.736C164.517 143.736 167.884 143.838 167.884 143.964Z" fill="#263238"/>
<path d="M168.582 190.808C168.565 190.808 168.546 190.602 168.525 190.21C168.506 189.772 168.48 189.202 168.449 188.496C168.386 187.008 168.29 184.855 168.101 182.199C167.913 179.543 167.645 176.383 167.248 172.884C167.049 171.134 166.826 169.299 166.566 167.4C166.277 165.506 166.097 163.518 165.588 161.57C165.08 159.616 164.268 157.787 163.222 156.171C162.192 154.556 160.69 153.357 159.122 152.441C155.962 150.619 152.729 149.646 150.036 148.91C147.321 148.206 145.078 147.799 143.527 147.534C142.789 147.417 142.194 147.322 141.736 147.248C141.326 147.183 141.111 147.141 141.113 147.125C141.115 147.109 141.334 147.121 141.748 147.156C142.163 147.187 142.772 147.256 143.556 147.358C145.121 147.569 147.382 147.928 150.124 148.597C152.848 149.299 156.115 150.241 159.357 152.082C160.961 153.002 162.544 154.25 163.625 155.935C164.703 157.588 165.538 159.462 166.057 161.457C166.324 162.451 166.495 163.461 166.631 164.441C166.768 165.423 166.903 166.39 167.036 167.342C167.29 169.245 167.505 171.084 167.691 172.839C168.064 176.347 168.298 179.516 168.442 182.179C168.586 184.841 168.631 187 168.636 188.491C168.643 189.236 168.63 189.816 168.621 190.207C168.612 190.601 168.599 190.808 168.582 190.808Z" fill="#263238"/>
<path d="M175.148 187.989C175.132 187.989 175.113 187.791 175.094 187.414C175.077 186.989 175.056 186.44 175.03 185.762C174.982 184.271 174.915 182.211 174.833 179.689C174.621 174.569 174.352 167.467 173.184 159.736C172.861 157.824 172.193 156.025 171.283 154.412C170.376 152.792 169.339 151.314 168.009 150.208C166.698 149.084 165.238 148.25 163.819 147.59C162.398 146.926 161.004 146.439 159.713 146.059C157.132 145.283 154.965 144.908 153.473 144.648C152.765 144.534 152.192 144.444 151.748 144.373C151.353 144.309 151.147 144.269 151.149 144.253C151.15 144.237 151.361 144.248 151.76 144.281C152.161 144.311 152.747 144.375 153.502 144.472C155.008 144.679 157.195 145.006 159.814 145.749C161.123 146.114 162.541 146.587 163.994 147.248C165.444 147.906 166.946 148.744 168.309 149.895C169.695 151.034 170.782 152.568 171.703 154.203C172.639 155.846 173.333 157.703 173.663 159.662C174.838 167.444 175.05 174.548 175.175 179.679C175.226 182.246 175.231 184.324 175.219 185.759C175.208 186.439 175.199 186.987 175.191 187.413C175.179 187.791 175.165 187.989 175.148 187.989Z" fill="#263238"/>
<path d="M137.537 159.394C137.534 159.4 137.427 159.421 137.239 159.312C137.198 159.28 137.138 159.205 137.172 159.123C137.198 159.049 137.256 158.995 137.316 158.952C137.441 158.864 137.597 158.799 137.776 158.741C138.494 158.521 139.594 158.432 140.913 158.632C141.571 158.732 142.282 158.91 143.012 159.184C143.374 159.316 143.752 159.475 144.116 159.714C144.461 159.946 144.79 160.206 145.118 160.479C146.424 161.578 147.745 162.878 149.11 164.262C149.782 164.947 150.429 165.622 151.046 166.283L151.069 166.308L151.083 166.337C152.466 169.174 153.659 171.67 154.494 173.461C154.873 174.295 155.193 174.998 155.454 175.575C155.67 176.074 155.777 176.351 155.75 176.363C155.723 176.374 155.566 176.119 155.303 175.641C155.006 175.08 154.643 174.395 154.213 173.583C153.302 171.825 152.054 169.355 150.651 166.525L150.689 166.578C150.062 165.929 149.415 165.258 148.752 164.571C147.393 163.193 146.084 161.887 144.818 160.792C144.501 160.52 144.185 160.263 143.867 160.04C143.562 159.83 143.211 159.671 142.858 159.533C142.162 159.255 141.483 159.066 140.85 158.949C139.587 158.716 138.519 158.754 137.827 158.911C137.502 158.98 137.176 159.14 137.303 159.243C137.432 159.349 137.547 159.374 137.537 159.394Z" fill="#EB996E"/>
<path d="M150.868 201.649C150.841 201.784 149.473 201.557 147.835 201.861C146.193 202.144 145.007 202.827 144.929 202.711C144.845 202.626 145.985 201.718 147.745 201.411C149.5 201.09 150.914 201.54 150.868 201.649Z" fill="#EB996E"/>
<path d="M150.476 180.989C150.545 181.014 150.121 182.146 149.497 183.989C148.872 185.832 148.074 188.397 147.382 191.273C146.693 194.151 146.241 196.79 145.963 198.707C145.684 200.624 145.55 201.817 145.477 201.812C145.443 201.809 145.438 201.509 145.455 200.965C145.47 200.421 145.526 199.637 145.622 198.67C145.814 196.734 146.214 194.069 146.908 191.172C147.605 188.276 148.46 185.709 149.171 183.885C149.526 182.972 149.834 182.242 150.069 181.745C150.302 181.246 150.445 180.978 150.476 180.989Z" fill="#EB996E"/>
<path d="M319.725 302.57C326.542 299.408 328.949 291.837 328.012 284.949C327.044 277.84 319.417 271.849 312.558 268.772C305.697 265.696 298.04 264.623 290.489 263.854C286.22 263.42 281.788 263.086 277.73 264.408C273.671 265.731 270.069 269.151 270.054 273.203" fill="#79B0FA"/>
<g opacity="0.3">
<path d="M319.725 302.57C326.542 299.408 328.949 291.837 328.012 284.949C327.044 277.84 319.417 271.849 312.558 268.772C305.697 265.696 298.04 264.623 290.489 263.854C286.22 263.42 281.788 263.086 277.73 264.408C273.671 265.731 270.069 269.151 270.054 273.203" fill="black"/>
</g>
<path d="M283.211 226.471L271.415 273.637L171.262 194.985L154.616 226.723L245 317.231C256.161 327.971 272.269 332.741 287.933 329.942C307.981 326.36 320.535 309.816 323.422 290.757L329.287 252.156L283.211 226.471Z" fill="#FFBE9D"/>
<path d="M322.687 191.808L311.695 185.978C311.695 185.978 285.982 187.91 283.211 226.471L279.208 236.468L271.415 273.637C272.903 266.388 310.965 240.076 328.013 284.949L334 221.062C332.439 207.746 333.763 198.757 322.687 191.808Z" fill="#79B0FA"/>
<path d="M279.655 222.234C279.672 222.231 279.713 222.404 279.777 222.737C279.835 223.07 279.946 223.56 280.008 224.2C280.176 225.474 280.303 227.34 280.175 229.639C279.963 234.246 278.537 240.506 276.088 247.125C274.809 250.42 273.401 253.473 272.311 256.317C271.217 259.157 270.419 261.776 270.019 264.024C269.616 266.27 269.582 268.125 269.697 269.394C269.825 270.661 269.973 271.359 269.925 271.368C269.908 271.372 269.861 271.2 269.784 270.87C269.724 270.538 269.567 270.053 269.509 269.412C269.335 268.134 269.315 266.252 269.68 263.972C270.041 261.691 270.814 259.036 271.89 256.174C272.962 253.309 274.361 250.242 275.632 246.97C278.066 240.389 279.536 234.178 279.832 229.619C280.003 227.342 279.929 225.489 279.82 224.216C279.719 222.943 279.611 222.24 279.655 222.234Z" fill="#263238"/>
<path d="M314.143 188.415C314.135 188.453 313.551 188.354 312.493 188.223C311.437 188.088 309.894 187.967 307.993 188.014C304.216 188.082 298.873 189.078 293.973 192.046C289.074 195.02 285.895 199.194 284.26 202.408C283.426 204.021 282.902 205.395 282.593 206.358C282.28 207.32 282.134 207.862 282.094 207.854C282.077 207.85 282.096 207.711 282.148 207.449C282.206 207.189 282.266 206.797 282.412 206.309C282.668 205.324 283.147 203.92 283.952 202.268C285.527 198.98 288.717 194.693 293.712 191.661C298.708 188.636 304.164 187.676 307.988 187.69C309.915 187.685 311.468 187.857 312.523 188.047C313.054 188.124 313.457 188.236 313.732 188.294C314.004 188.358 314.147 188.399 314.143 188.415Z" fill="#263238"/>
<path d="M327.952 289.171C327.935 289.171 327.909 288.907 327.876 288.407C327.86 288.145 327.84 287.838 327.819 287.483C327.807 287.118 327.775 286.697 327.693 286.228C327.5 284.341 326.909 281.622 325.571 278.479C324.248 275.333 321.994 271.825 318.711 268.593C317.038 267.012 315.142 265.474 312.964 264.171C310.776 262.888 308.348 261.805 305.736 261.058C303.126 260.285 300.443 260.018 297.874 259.966C295.296 259.903 292.81 260.21 290.5 260.692C288.17 261.131 286.064 261.922 284.124 262.692C282.232 263.566 280.51 264.474 279.079 265.497C276.189 267.505 274.246 269.597 273.113 271.159C272.794 271.529 272.569 271.893 272.373 272.207C272.177 272.51 272.008 272.773 271.862 272.997C271.583 273.423 271.43 273.645 271.415 273.637C271.4 273.63 271.525 273.394 271.777 272.952C271.911 272.72 272.068 272.449 272.25 272.136C272.434 271.812 272.649 271.438 272.957 271.057C274.051 269.452 275.976 267.302 278.875 265.235C280.312 264.184 282.044 263.247 283.955 262.347C285.913 261.551 288.042 260.736 290.401 260.28C292.741 259.779 295.261 259.46 297.88 259.517C300.489 259.563 303.216 259.832 305.874 260.618C308.533 261.378 311 262.483 313.219 263.792C315.428 265.121 317.345 266.688 319.033 268.299C322.344 271.591 324.594 275.162 325.891 278.357C327.203 281.551 327.745 284.305 327.882 286.209C327.95 286.683 327.967 287.107 327.964 287.475C327.968 287.832 327.972 288.141 327.974 288.406C327.975 288.907 327.969 289.171 327.952 289.171Z" fill="#263238"/>
<g opacity="0.3">
<path d="M265.912 269.315C267.714 256.981 271.195 247.807 278.755 237.602C276.113 249.538 273.173 260.184 270.054 272.567" fill="black"/>
</g>
<path d="M287.38 284.454C287.3 284.556 283.733 282.187 279.413 279.164C275.092 276.14 271.655 273.608 271.735 273.507C271.815 273.405 275.381 275.773 279.703 278.797C284.022 281.819 287.46 284.353 287.38 284.454Z" fill="#EB996E"/>
<path d="M89.6485 321.251C87.4872 324.164 83.2864 323.2 81.3391 321.422C79.3918 319.644 78.5678 317.067 77.819 314.61C76.1072 308.996 74.3809 303.106 75.6538 297.388C76.0343 295.678 76.7118 293.973 77.9847 292.706C79.2576 291.437 81.2148 290.683 83.0049 291.129C85.1225 291.657 86.4391 293.615 87.3905 295.477C90.1872 300.95 91.668 307.018 91.6902 313.096C91.6994 315.932 91.3449 318.909 89.6485 321.251Z" fill="#79B0FA"/>
<g opacity="0.2">
<path d="M89.6485 321.251C87.4872 324.164 83.2864 323.2 81.3391 321.422C79.3918 319.644 78.5678 317.067 77.819 314.61C76.1072 308.996 74.3809 303.106 75.6538 297.388C76.0343 295.678 76.7118 293.973 77.9847 292.706C79.2576 291.437 81.2148 290.683 83.0049 291.129C85.1225 291.657 86.4391 293.615 87.3905 295.477C90.1872 300.95 91.668 307.018 91.6902 313.096C91.6994 315.932 91.3449 318.909 89.6485 321.251Z" fill="black"/>
</g>
<path d="M81.5501 336.002C78.0162 334.281 73.8538 334.058 69.9293 334.67C67.8216 334.999 65.6234 335.594 64.1886 337.088C62.7539 338.583 62.4822 341.212 64.1295 342.496C65.1101 343.26 66.4774 343.376 67.7487 343.362C70.8208 343.328 74.229 342.818 76.6834 344.562C78.0837 345.557 79.0151 347.211 80.6893 347.701C82.3274 348.179 84.1749 347.268 85.0435 345.872C85.912 344.478 85.9412 342.734 85.536 341.162C85.5376 341.162 85.111 337.736 81.5501 336.002Z" fill="#79B0FA"/>
<path d="M95.5833 325.431C93.2362 322.803 92.7912 318.97 93.8355 315.677C94.8797 312.385 97.239 309.584 99.9574 307.298C103.145 304.617 106.892 302.53 110.92 301.194C112.505 300.668 114.178 300.253 115.85 300.404C117.523 300.554 119.208 301.362 119.987 302.766C121.141 304.843 120.035 307.361 118.839 309.415C116.731 313.035 114.321 316.498 111.638 319.762C109.48 322.387 107.008 324.978 103.719 326.164C100.429 327.35 97.0127 327.211 95.2695 325.058" fill="#79B0FA"/>
<path d="M89.7951 365.191C89.7544 365.193 89.6884 364.722 89.5994 363.867C89.4997 362.904 89.3754 361.695 89.2265 360.255C89.0485 358.735 88.813 356.926 88.3657 354.956C87.9199 352.992 87.2217 350.862 86.3248 348.703C85.3964 346.557 84.2639 344.605 82.9404 343.045C81.6269 341.478 80.0985 340.343 78.6622 339.689C77.2305 339.021 75.9468 338.75 75.0591 338.63C74.1645 338.543 73.6627 338.477 73.6627 338.44C73.662 338.402 74.1645 338.396 75.0837 338.419C75.9944 338.476 77.3317 338.694 78.8409 339.341C80.3547 339.975 81.976 341.127 83.354 342.727C84.7435 344.319 85.9166 346.314 86.8619 348.499C87.7741 350.696 88.4624 352.847 88.8882 354.855C89.3132 356.859 89.5074 358.688 89.6347 360.221C89.756 361.755 89.802 362.996 89.8242 363.855C89.8442 364.714 89.8342 365.189 89.7951 365.191Z" fill="#263238"/>
<path d="M89.5312 362.412C89.5112 362.411 89.4989 362.199 89.4936 361.797C89.4951 361.336 89.4966 360.754 89.4982 360.04C89.5028 358.516 89.502 356.31 89.4153 353.587C89.2726 348.139 88.7754 340.62 87.8156 332.355C86.8481 324.087 85.5667 316.65 84.3982 311.315C84.122 309.977 83.8443 308.773 83.5818 307.72C83.3317 306.664 83.1192 305.753 82.9136 305.016C82.7371 304.322 82.5929 303.757 82.4785 303.309C82.3849 302.916 82.3458 302.708 82.365 302.703C82.3842 302.697 82.4617 302.896 82.5913 303.278C82.7333 303.72 82.912 304.277 83.1315 304.961C83.3708 305.691 83.6164 306.596 83.8972 307.648C84.1895 308.698 84.4964 309.898 84.7987 311.234C86.0731 316.563 87.422 324.01 88.391 332.295C89.3532 340.578 89.7859 348.119 89.8243 353.58C89.8588 356.31 89.7974 358.521 89.723 360.046C89.6769 360.759 89.6393 361.341 89.6094 361.801C89.5772 362.203 89.5511 362.413 89.5312 362.412Z" fill="#263238"/>
<path d="M89.492 347.866C89.4521 347.865 89.459 347.213 89.5058 346.032C89.5772 344.853 89.749 343.149 90.1012 341.061C90.4741 338.979 90.9951 336.506 91.8145 333.819C92.5933 331.123 93.6636 328.211 95.0239 325.25C97.6863 319.292 101.302 314.42 104.449 311.402C105.187 310.601 106.009 310.024 106.666 309.457C107.006 309.186 107.307 308.915 107.613 308.701C107.922 308.5 108.208 308.314 108.473 308.141C109.509 307.473 110.088 307.12 110.11 307.152C110.203 307.271 107.79 308.611 104.744 311.669C101.711 314.719 98.195 319.558 95.5549 325.467C94.206 328.402 93.1288 331.286 92.327 333.957C91.4853 336.618 90.9268 339.065 90.504 341.127C90.1027 343.194 89.8703 344.881 89.7299 346.048C89.6148 347.219 89.5319 347.868 89.492 347.866Z" fill="#263238"/>
</g>
<path d="M49.6516 366.751L61.7082 359.863C61.7082 359.863 67.4902 327.995 63.1663 300.602C57.0864 262.088 30.8628 248.803 21.3389 252.631C11.8151 256.46 9.57644 267.869 26.7765 290.122C36.9238 303.252 49.9771 331.007 49.6516 366.751Z" fill="#618DC8"/>
<g opacity="0.15">
<path d="M49.6516 366.751L61.7082 359.863C61.7082 359.863 67.4902 327.995 63.1663 300.602C57.0864 262.088 30.8628 248.803 21.3389 252.631C11.8151 256.46 9.57644 267.869 26.7765 290.122C36.9238 303.252 49.9771 331.007 49.6516 366.751Z" fill="black"/>
</g>
<path d="M54.0221 351.455C53.9818 351.455 53.9429 351.451 53.9026 351.446C53.4325 351.381 53.1032 350.947 53.1686 350.477C58.1511 314.42 43.651 274.916 27.3597 258.994C27.0204 258.664 27.0141 258.118 27.3459 257.779C27.6778 257.443 28.222 257.433 28.5614 257.765C45.1505 273.976 59.9284 314.124 54.8717 350.711C54.8127 351.142 54.4431 351.455 54.0221 351.455Z" fill="white"/>
<path d="M343.819 365.842L326.416 356.632C326.416 356.632 325.093 330.025 327.166 308.939C330.077 279.309 352.11 244.905 374.939 253.278C397.767 261.65 364.472 291.826 357.061 316.958C349.649 342.091 343.819 365.842 343.819 365.842Z" fill="#79B0FA"/>
<path opacity="0.3" d="M343.819 365.842L326.416 356.632C326.416 356.632 325.093 330.025 327.166 308.939C330.077 279.309 352.11 244.905 374.939 253.278C397.767 261.65 364.472 291.826 357.061 316.958C349.649 342.091 343.819 365.842 343.819 365.842Z" fill="black"/>
<path d="M335.311 362.751C335.32 362.751 335.329 362.751 335.337 362.751C335.762 362.736 336.095 362.38 336.08 361.956C333.847 296.118 366.621 263 366.952 262.675C367.255 262.375 367.259 261.888 366.961 261.586C366.659 261.283 366.172 261.279 365.872 261.577C365.536 261.909 332.287 295.504 334.542 362.008C334.556 362.424 334.897 362.751 335.311 362.751Z" fill="white"/>
<path d="M352.752 371.095L343.706 365.871C343.706 365.871 340.859 344.914 349.322 321.947C357.707 299.194 379.369 286.789 389.34 290.18C401.512 294.319 401.585 305.971 397.155 313.634C391.934 322.664 359.325 345.511 352.752 371.095Z" fill="#79B0FA"/>
<path opacity="0.1" d="M352.752 371.095L343.706 365.871C343.706 365.871 340.859 344.914 349.322 321.947C357.707 299.194 379.369 286.789 389.34 290.18C401.512 294.319 401.585 305.971 397.155 313.634C391.934 322.664 359.325 345.511 352.752 371.095Z" fill="black"/>
<path d="M347.98 369.11H347.983C348.408 369.108 348.753 368.762 348.75 368.337C348.57 326.71 387.658 298.575 388.052 298.295C388.398 298.05 388.481 297.57 388.235 297.223C387.992 296.877 387.513 296.791 387.162 297.041C386.761 297.325 347.027 325.925 347.21 368.346C347.212 368.767 347.556 369.11 347.98 369.11Z" fill="white"/>
<defs>
<clipPath id="clip0_60_582">
<rect width="383.629" height="362" fill="white"/>
</clipPath>
</defs>
</svg>
