<svg width="16" height="15" viewBox="0 0 16 15" fill="none" xmlns="http://www.w3.org/2000/svg">
<mask id="mask0_17_946" style="mask-type:luminance" maskUnits="userSpaceOnUse" x="0" y="0" width="16" height="15">
<path d="M4.84375 6.34254C4.74242 6.08629 4.67201 5.82111 4.62615 5.54933C4.60801 5.4395 4.60905 5.32638 4.59198 5.21544L4.60479 5.16886C4.59412 5.05793 4.59412 4.94477 4.60479 4.83384C4.61866 4.35017 4.75307 3.89978 4.96427 3.47491C5.1424 3.11326 5.3845 2.79818 5.67677 2.52861C5.90397 2.31895 6.15681 2.14482 6.43307 2.0117C6.73921 1.86527 7.05812 1.75876 7.39625 1.72104C7.57438 1.70108 7.75148 1.68222 7.93068 1.69109C8.57814 1.72881 9.17333 1.92738 9.7024 2.32896C10.0064 2.55859 10.2656 2.83148 10.4757 3.15429C10.6976 3.49708 10.8608 3.86761 10.944 4.27473C10.9835 4.46554 11.0229 4.65523 11.0251 4.85047C11.0496 4.97361 11.0507 5.09675 11.0251 5.21989C11.0059 5.63589 10.9109 6.03192 10.7509 6.41242C10.5611 6.8617 10.2795 7.24108 9.93068 7.56611C9.53708 7.93219 9.07625 8.17735 8.56531 8.31047C8.23145 8.397 7.88907 8.42143 7.5488 8.39259C7.18933 8.36264 6.84267 8.27056 6.51094 8.11526C6.09174 7.9189 5.73012 7.64486 5.42292 7.29431C5.17758 7.01254 4.98455 6.69642 4.84375 6.34254ZM1.70026 14.6958C1.72906 14.5072 1.77493 14.3209 1.83359 14.1378C2.09279 13.3236 2.56639 12.6591 3.16693 12.0844C3.74719 11.5309 4.41065 11.1104 5.13172 10.7832C5.58612 10.578 6.05758 10.4304 6.54078 10.325C6.93011 10.2396 7.32797 10.1964 7.72797 10.1842C7.83464 10.1764 7.9413 10.1764 8.04797 10.1842C8.20263 10.1941 8.35627 10.2052 8.51094 10.2185C8.82027 10.2474 9.12425 10.3039 9.42505 10.3816C9.99145 10.528 10.528 10.7477 11.0346 11.0461C11.5733 11.3623 12.0597 11.7472 12.4789 12.2242C12.8341 12.628 13.1275 13.0717 13.344 13.5731C13.4997 13.9359 13.6042 14.3098 13.6586 14.6958H15.3386C15.3408 14.5716 15.3152 14.4506 15.3056 14.3286C15.2853 14.0546 15.2267 13.7895 15.1552 13.5288C15.0283 13.0618 14.8363 12.6247 14.5973 12.2087C14.3477 11.7738 14.0437 11.3822 13.712 11.015C13.6149 10.9074 13.5072 10.812 13.4048 10.7111C13.2555 10.5647 13.0997 10.426 12.9365 10.2973C12.6549 10.0732 12.3584 9.86799 12.0501 9.68273C11.6618 9.44866 11.2619 9.24455 10.8416 9.08148C10.7157 9.03156 10.5909 8.98049 10.4693 8.93057C11.7141 7.98098 12.3989 6.71191 12.4917 5.10337L12.5034 4.93259L12.4885 4.85377C12.5024 4.6197 12.4736 4.38679 12.4405 4.15605C12.3979 3.85209 12.3264 3.55479 12.2272 3.26414C12.0171 2.64846 11.7002 2.09711 11.281 1.61233C11.0538 1.35164 10.8032 1.11201 10.5269 0.910115C10.1013 0.600611 9.64051 0.363231 9.14557 0.206815C8.72424 0.0736952 8.29121 0.0148611 7.85281 0.000440598C7.75148 -0.00288773 7.65014 0.012682 7.55094 0.012682C7.40054 0.012682 7.25335 0.0304441 7.10828 0.0537405C6.74988 0.111425 6.39998 0.206815 6.06078 0.345482C5.52958 0.559583 5.05811 0.870174 4.63891 1.26621C4.12584 1.75099 3.73333 2.32785 3.4624 2.99456C3.2512 3.51262 3.13491 4.05395 3.09865 4.61306C3.08371 4.83049 3.08905 5.05237 3.10719 5.27091C3.13279 5.57043 3.1776 5.86443 3.2512 6.15507C3.4624 6.99595 3.872 7.71812 4.44906 8.34156C4.624 8.53015 4.82135 8.69543 5.02828 8.85961L4.95464 8.88399C4.3957 9.07923 3.85387 9.31667 3.33974 9.62174C2.73601 9.98227 2.18028 10.4083 1.69068 10.9252C1.31948 11.3168 0.99091 11.745 0.723177 12.222C0.348777 12.8854 0.101306 13.5965 0.0255729 14.363C0.0138396 14.4739 0.00533333 14.5849 0 14.6958H1.70026Z" fill="white"/>
</mask>
<g mask="url(#mask0_17_946)">
<path d="M4.84375 6.34254C4.74242 6.08629 4.67201 5.82111 4.62615 5.54933C4.60801 5.4395 4.60905 5.32638 4.59198 5.21544L4.60479 5.16886C4.59412 5.05793 4.59412 4.94477 4.60479 4.83384C4.61866 4.35017 4.75307 3.89978 4.96427 3.47491C5.1424 3.11326 5.3845 2.79818 5.67677 2.52861C5.90397 2.31895 6.15681 2.14482 6.43307 2.0117C6.73921 1.86527 7.05812 1.75876 7.39625 1.72104C7.57438 1.70108 7.75148 1.68222 7.93068 1.69109C8.57814 1.72881 9.17333 1.92738 9.7024 2.32896C10.0064 2.55859 10.2656 2.83148 10.4757 3.15429C10.6976 3.49708 10.8608 3.86761 10.944 4.27473C10.9835 4.46554 11.0229 4.65523 11.0251 4.85047C11.0496 4.97361 11.0507 5.09675 11.0251 5.21989C11.0059 5.63589 10.9109 6.03192 10.7509 6.41242C10.5611 6.8617 10.2795 7.24108 9.93068 7.56611C9.53708 7.93219 9.07625 8.17735 8.56531 8.31047C8.23145 8.397 7.88907 8.42143 7.5488 8.39259C7.18933 8.36264 6.84267 8.27056 6.51094 8.11526C6.09174 7.9189 5.73012 7.64486 5.42292 7.29431C5.17758 7.01254 4.98455 6.69642 4.84375 6.34254ZM1.70026 14.6958C1.72906 14.5072 1.77493 14.3209 1.83359 14.1378C2.09279 13.3236 2.56639 12.6591 3.16693 12.0844C3.74719 11.5309 4.41065 11.1104 5.13172 10.7832C5.58612 10.578 6.05758 10.4304 6.54078 10.325C6.93011 10.2396 7.32797 10.1964 7.72797 10.1842C7.83464 10.1764 7.9413 10.1764 8.04797 10.1842C8.20263 10.1941 8.35627 10.2052 8.51094 10.2185C8.82027 10.2474 9.12425 10.3039 9.42505 10.3816C9.99145 10.528 10.528 10.7477 11.0346 11.0461C11.5733 11.3623 12.0597 11.7472 12.4789 12.2242C12.8341 12.628 13.1275 13.0717 13.344 13.5731C13.4997 13.9359 13.6042 14.3098 13.6586 14.6958H15.3386C15.3408 14.5716 15.3152 14.4506 15.3056 14.3286C15.2853 14.0546 15.2267 13.7895 15.1552 13.5288C15.0283 13.0618 14.8363 12.6247 14.5973 12.2087C14.3477 11.7738 14.0437 11.3822 13.712 11.015C13.6149 10.9074 13.5072 10.812 13.4048 10.7111C13.2555 10.5647 13.0997 10.426 12.9365 10.2973C12.6549 10.0732 12.3584 9.86799 12.0501 9.68273C11.6618 9.44866 11.2619 9.24455 10.8416 9.08148C10.7157 9.03156 10.5909 8.98049 10.4693 8.93057C11.7141 7.98098 12.3989 6.71191 12.4917 5.10337L12.5034 4.93259L12.4885 4.85377C12.5024 4.6197 12.4736 4.38679 12.4405 4.15605C12.3979 3.85209 12.3264 3.55479 12.2272 3.26414C12.0171 2.64846 11.7002 2.09711 11.281 1.61233C11.0538 1.35164 10.8032 1.11201 10.5269 0.910115C10.1013 0.600611 9.64051 0.363231 9.14557 0.206815C8.72424 0.0736952 8.29121 0.0148611 7.85281 0.000440598C7.75148 -0.00288773 7.65014 0.012682 7.55094 0.012682C7.40054 0.012682 7.25335 0.0304441 7.10828 0.0537405C6.74988 0.111425 6.39998 0.206815 6.06078 0.345482C5.52958 0.559583 5.05811 0.870174 4.63891 1.26621C4.12584 1.75099 3.73333 2.32785 3.4624 2.99456C3.2512 3.51262 3.13491 4.05395 3.09865 4.61306C3.08371 4.83049 3.08905 5.05237 3.10719 5.27091C3.13279 5.57043 3.1776 5.86443 3.2512 6.15507C3.4624 6.99595 3.872 7.71812 4.44906 8.34156C4.624 8.53015 4.82135 8.69543 5.02828 8.85961L4.95464 8.88399C4.3957 9.07923 3.85387 9.31667 3.33974 9.62174C2.73601 9.98227 2.18028 10.4083 1.69068 10.9252C1.31948 11.3168 0.99091 11.745 0.723177 12.222C0.348777 12.8854 0.101306 13.5965 0.0255729 14.363C0.0138396 14.4739 0.00533333 14.5849 0 14.6958H1.70026Z" fill="#79B0FA"/>
</g>
</svg>
