<svg xmlns="http://www.w3.org/2000/svg" width="15" height="19" fill="none" viewBox="0 0 15 19"><mask id="mask0_17_940" style="mask-type:luminance" width="15" height="19" x="0" y="0" maskUnits="userSpaceOnUse"><path fill="#fff" d="M12.7879 17.1681H12.5585C9.06627 17.1681 5.57508 17.167 2.08281 17.1725C1.87588 17.1725 1.82149 17.127 1.82255 16.9395C1.83002 14.3626 1.82682 11.7867 1.82682 9.2086V9.0045C5.49296 9.0045 9.13346 9.0045 12.7879 9.0045C12.7879 11.7213 12.7879 14.4336 12.7879 17.1681ZM3.66042 5.48675C3.66468 5.18169 3.67534 4.87662 3.70521 4.57377L3.72443 4.39188C3.73616 4.29093 3.75429 4.19332 3.77776 4.0957L3.84922 3.85162L3.91964 3.6719C3.97937 3.53434 4.04867 3.40232 4.12974 3.27475L4.30359 3.02851L4.40068 2.91091C4.69934 2.5648 5.08123 2.27416 5.51109 2.05784C5.60709 2.00903 5.7052 1.96574 5.80547 1.9247C5.90574 1.88476 6.00812 1.84816 6.11266 1.81599C6.21612 1.78382 6.32281 1.75611 6.42948 1.7317C6.53721 1.70841 6.64599 1.68955 6.75479 1.67402L6.92016 1.65516L7.09297 1.64406C7.20177 1.63851 7.31373 1.63849 7.42359 1.64292C8.37933 1.68175 9.2167 2.01012 9.8375 2.53483C10.0444 2.71011 10.2268 2.9076 10.3826 3.12281L10.5554 3.39012L10.7004 3.67412C10.7431 3.77063 10.7825 3.87047 10.8167 3.97252L10.87 4.15555L10.9266 4.42406L10.933 4.46506C10.9586 4.62148 10.9714 4.78234 10.9714 4.94763C10.9735 5.31815 10.9735 5.6887 10.9735 6.0581C10.9735 6.42862 10.9724 6.79914 10.9724 7.16966V7.34267C8.5308 7.34267 6.10735 7.34267 3.68708 7.34267L3.67 7.32273C3.67107 7.20071 3.67109 7.07865 3.67109 6.95662V6.9544C3.66896 6.52731 3.65722 6.09804 3.65828 5.66984L3.66042 5.48675ZM14.629 9.03332C14.6162 8.3422 14.2737 7.82191 13.5719 7.52239C13.3425 7.42366 13.0801 7.3904 12.8049 7.32051V7.08754C12.7825 6.12242 12.8348 5.14952 12.7228 4.19217C12.5009 2.30186 10.8167 0.645639 8.74948 0.17972C8.41348 0.103176 8.06896 0.0587883 7.72656 -5.72205e-06C7.45243 -5.72205e-06 7.17934 -5.72205e-06 6.90521 -5.72205e-06L6.78682 0.0266438C5.52496 0.142015 4.42734 0.586847 3.51641 1.37447C2.50307 2.25307 1.92283 3.3269 1.85563 4.59154C1.81189 5.43463 1.83429 6.27993 1.82682 7.12524V7.34933C1.67216 7.37041 1.53667 7.37931 1.40547 7.41037C0.527604 7.62226 0.00388081 8.22904 0.00281414 9.05217C-0.000385857 11.739 -0.00145252 14.4258 0.00281414 17.1126C0.00494748 18.0988 0.791079 18.8021 1.89401 18.8032C5.50894 18.8076 9.12283 18.8087 12.7378 18.7988C13.0226 18.7976 13.3298 18.7389 13.5868 18.6313C14.3079 18.3262 14.63 17.7804 14.63 17.076C14.6311 14.8851 14.63 12.6941 14.63 10.5032C14.63 10.0129 14.6375 9.52364 14.629 9.03332Z"/></mask><g mask="url(#mask0_17_940)"><path fill="#79B0FA" d="M12.7879 17.1681H12.5585C9.06627 17.1681 5.57508 17.167 2.08281 17.1725C1.87588 17.1725 1.82149 17.127 1.82255 16.9395C1.83002 14.3626 1.82682 11.7867 1.82682 9.2086V9.0045C5.49296 9.0045 9.13346 9.0045 12.7879 9.0045C12.7879 11.7213 12.7879 14.4336 12.7879 17.1681ZM3.66042 5.48675C3.66468 5.18169 3.67534 4.87662 3.70521 4.57377L3.72443 4.39188C3.73616 4.29093 3.75429 4.19332 3.77776 4.0957L3.84922 3.85162L3.91964 3.6719C3.97937 3.53434 4.04867 3.40232 4.12974 3.27475L4.30359 3.02851L4.40068 2.91091C4.69934 2.5648 5.08123 2.27416 5.51109 2.05784C5.60709 2.00903 5.7052 1.96574 5.80547 1.9247C5.90574 1.88476 6.00812 1.84816 6.11266 1.81599C6.21612 1.78382 6.32281 1.75611 6.42948 1.7317C6.53721 1.70841 6.64599 1.68955 6.75479 1.67402L6.92016 1.65516L7.09297 1.64406C7.20177 1.63851 7.31373 1.63849 7.42359 1.64292C8.37933 1.68175 9.2167 2.01012 9.8375 2.53483C10.0444 2.71011 10.2268 2.9076 10.3826 3.12281L10.5554 3.39012L10.7004 3.67412C10.7431 3.77063 10.7825 3.87047 10.8167 3.97252L10.87 4.15555L10.9266 4.42406L10.933 4.46506C10.9586 4.62148 10.9714 4.78234 10.9714 4.94763C10.9735 5.31815 10.9735 5.6887 10.9735 6.0581C10.9735 6.42862 10.9724 6.79914 10.9724 7.16966V7.34267C8.5308 7.34267 6.10735 7.34267 3.68708 7.34267L3.67 7.32273C3.67107 7.20071 3.67109 7.07865 3.67109 6.95662V6.9544C3.66896 6.52731 3.65722 6.09804 3.65828 5.66984L3.66042 5.48675ZM14.629 9.03332C14.6162 8.3422 14.2737 7.82191 13.5719 7.52239C13.3425 7.42366 13.0801 7.3904 12.8049 7.32051V7.08754C12.7825 6.12242 12.8348 5.14952 12.7228 4.19217C12.5009 2.30186 10.8167 0.645639 8.74948 0.17972C8.41348 0.103176 8.06896 0.0587883 7.72656 -5.72205e-06C7.45243 -5.72205e-06 7.17934 -5.72205e-06 6.90521 -5.72205e-06L6.78682 0.0266438C5.52496 0.142015 4.42734 0.586847 3.51641 1.37447C2.50307 2.25307 1.92283 3.3269 1.85563 4.59154C1.81189 5.43463 1.83429 6.27993 1.82682 7.12524V7.34933C1.67216 7.37041 1.53667 7.37931 1.40547 7.41037C0.527604 7.62226 0.00388081 8.22904 0.00281414 9.05217C-0.000385857 11.739 -0.00145252 14.4258 0.00281414 17.1126C0.00494748 18.0988 0.791079 18.8021 1.89401 18.8032C5.50894 18.8076 9.12283 18.8087 12.7378 18.7988C13.0226 18.7976 13.3298 18.7389 13.5868 18.6313C14.3079 18.3262 14.63 17.7804 14.63 17.076C14.6311 14.8851 14.63 12.6941 14.63 10.5032C14.63 10.0129 14.6375 9.52364 14.629 9.03332Z"/></g></svg>